<?xml version="1.0" encoding="iso-8859-1"?>
<!-- Generator: Adobe Illustrator 19.0.0, SVG Export Plug-In . SVG Version: 6.00 Build 0)  -->
<svg version="1.1" id="Layer_1" xmlns="http://www.w3.org/2000/svg" xmlns:xlink="http://www.w3.org/1999/xlink" x="0px" y="0px"
	 viewBox="0 0 512 512" style="enable-background:new 0 0 512 512;" xml:space="preserve">
<path style="fill:#D3D2D2;" d="M174.23,230.347c0-4.427-3.588-8.017-8.017-8.017H46.497c-4.428,0-8.017,3.589-8.017,8.017v272.568
	H174.23V230.347z"/>
<path style="fill:#BDBCBC;" d="M174.23,230.347c0-4.427-3.588-8.017-8.017-8.017h-26.009v280.05h34.026V230.347z"/>
<g>
	<path style="fill:#A7A6A6;" d="M72.15,315.324c-4.428,0-8.017-3.589-8.017-8.017V256c0-4.427,3.588-8.017,8.017-8.017
		s8.017,3.589,8.017,8.017v51.307C80.167,311.734,76.579,315.324,72.15,315.324z"/>
	<path style="fill:#A7A6A6;" d="M106.355,315.324c-4.428,0-8.017-3.589-8.017-8.017V256c0-4.427,3.588-8.017,8.017-8.017
		c4.428,0,8.017,3.589,8.017,8.017v51.307C114.372,311.734,110.783,315.324,106.355,315.324z"/>
	<path style="fill:#A7A6A6;" d="M140.56,315.324c-4.428,0-8.017-3.589-8.017-8.017V256c0-4.427,3.588-8.017,8.017-8.017
		c4.428,0,8.017,3.589,8.017,8.017v51.307C148.576,311.734,144.988,315.324,140.56,315.324z"/>
	<path style="fill:#A7A6A6;" d="M72.15,375.182c-4.428,0-8.017-3.589-8.017-8.017v-25.653c0-4.427,3.588-8.017,8.017-8.017
		s8.017,3.589,8.017,8.017v25.653C80.167,371.592,76.579,375.182,72.15,375.182z"/>
	<path style="fill:#A7A6A6;" d="M106.355,375.182c-4.428,0-8.017-3.589-8.017-8.017v-25.653c0-4.427,3.588-8.017,8.017-8.017
		c4.428,0,8.017,3.589,8.017,8.017v25.653C114.372,371.592,110.783,375.182,106.355,375.182z"/>
	<path style="fill:#A7A6A6;" d="M140.56,375.182c-4.428,0-8.017-3.589-8.017-8.017v-25.653c0-4.427,3.588-8.017,8.017-8.017
		c4.428,0,8.017,3.589,8.017,8.017v25.653C148.576,371.592,144.988,375.182,140.56,375.182z"/>
</g>
<path style="fill:#D3D2D2;" d="M473.52,187.591c0-4.427-3.588-8.017-8.017-8.017H345.787c-4.428,0-8.017,3.589-8.017,8.017v315.324
	H473.52V187.591z"/>
<path style="fill:#BDBCBC;" d="M371.085,179.574h-25.297c-4.428,0-8.017,3.589-8.017,8.017V502.38h33.314V179.574z"/>
<g>
	<path style="fill:#A7A6A6;" d="M371.441,375.182c-4.428,0-8.017-3.589-8.017-8.017v-25.653c0-4.427,3.588-8.017,8.017-8.017
		c4.428,0,8.017,3.589,8.017,8.017v25.653C379.457,371.592,375.869,375.182,371.441,375.182z"/>
	<path style="fill:#A7A6A6;" d="M405.645,375.182c-4.428,0-8.017-3.589-8.017-8.017v-25.653c0-4.427,3.588-8.017,8.017-8.017
		s8.017,3.589,8.017,8.017v25.653C413.662,371.592,410.074,375.182,405.645,375.182z"/>
	<path style="fill:#A7A6A6;" d="M439.85,375.182c-4.428,0-8.017-3.589-8.017-8.017v-25.653c0-4.427,3.588-8.017,8.017-8.017
		s8.017,3.589,8.017,8.017v25.653C447.866,371.592,444.278,375.182,439.85,375.182z"/>
	<path style="fill:#A7A6A6;" d="M371.441,229.812c-4.428,0-8.017-3.589-8.017-8.017v-8.551c0-4.427,3.588-8.017,8.017-8.017
		c4.428,0,8.017,3.589,8.017,8.017v8.551C379.457,226.223,375.869,229.812,371.441,229.812z"/>
	<path style="fill:#A7A6A6;" d="M405.645,229.812c-4.428,0-8.017-3.589-8.017-8.017v-8.551c0-4.427,3.588-8.017,8.017-8.017
		s8.017,3.589,8.017,8.017v8.551C413.662,226.223,410.074,229.812,405.645,229.812z"/>
	<path style="fill:#A7A6A6;" d="M439.85,229.812c-4.428,0-8.017-3.589-8.017-8.017v-8.551c0-4.427,3.588-8.017,8.017-8.017
		s8.017,3.589,8.017,8.017v8.551C447.866,226.223,444.278,229.812,439.85,229.812z"/>
	<path style="fill:#A7A6A6;" d="M371.441,272.568c-4.428,0-8.017-3.589-8.017-8.017V256c0-4.427,3.588-8.017,8.017-8.017
		c4.428,0,8.017,3.589,8.017,8.017v8.551C379.457,268.979,375.869,272.568,371.441,272.568z"/>
	<path style="fill:#A7A6A6;" d="M405.645,272.568c-4.428,0-8.017-3.589-8.017-8.017V256c0-4.427,3.588-8.017,8.017-8.017
		s8.017,3.589,8.017,8.017v8.551C413.662,268.979,410.074,272.568,405.645,272.568z"/>
	<path style="fill:#A7A6A6;" d="M439.85,272.568c-4.428,0-8.017-3.589-8.017-8.017V256c0-4.427,3.588-8.017,8.017-8.017
		s8.017,3.589,8.017,8.017v8.551C447.866,268.979,444.278,272.568,439.85,272.568z"/>
	<path style="fill:#A7A6A6;" d="M371.441,315.324c-4.428,0-8.017-3.589-8.017-8.017v-8.551c0-4.427,3.588-8.017,8.017-8.017
		c4.428,0,8.017,3.589,8.017,8.017v8.551C379.457,311.734,375.869,315.324,371.441,315.324z"/>
	<path style="fill:#A7A6A6;" d="M405.645,315.324c-4.428,0-8.017-3.589-8.017-8.017v-8.551c0-4.427,3.588-8.017,8.017-8.017
		s8.017,3.589,8.017,8.017v8.551C413.662,311.734,410.074,315.324,405.645,315.324z"/>
	<path style="fill:#A7A6A6;" d="M439.85,315.324c-4.428,0-8.017-3.589-8.017-8.017v-8.551c0-4.427,3.588-8.017,8.017-8.017
		s8.017,3.589,8.017,8.017v8.551C447.866,311.734,444.278,315.324,439.85,315.324z"/>
</g>
<path style="fill:#7B7979;" d="M256,67.34c-4.428,0-8.017-3.589-8.017-8.017V8.017C247.983,3.589,251.572,0,256,0
	c4.428,0,8.017,3.589,8.017,8.017v51.307C264.017,63.751,260.428,67.34,256,67.34z"/>
<path style="fill:#6DDAE1;" d="M277.378,51.307h-42.756c-4.428,0-8.017,3.589-8.017,8.017v42.756c0,4.427,3.588,8.017,8.017,8.017
	h42.756c4.428,0,8.017-3.589,8.017-8.017V59.324C285.395,54.896,281.806,51.307,277.378,51.307z"/>
<path style="fill:#4FC4D4;" d="M226.605,76.07v26.009c0,4.427,3.588,8.017,8.017,8.017h42.756c4.428,0,8.017-3.589,8.017-8.017
	V76.07H226.605z"/>
<path style="fill:#FF8C78;" d="M320.134,85.511H191.866c-4.428,0-8.017,3.589-8.017,8.017v51.307c0,4.427,3.588,8.017,8.017,8.017
	h128.267c4.428,0,8.017-3.589,8.017-8.017V93.528C328.15,89.101,324.562,85.511,320.134,85.511z"/>
<path style="fill:#DF7A6E;" d="M183.85,110.986v33.849c0,4.427,3.588,8.017,8.017,8.017h128.267c4.428,0,8.017-3.589,8.017-8.017
	v-33.849H183.85z"/>
<path style="fill:#6DDAE1;" d="M353.804,127.733c0-4.427-3.588-8.017-8.017-8.017H166.213c-4.428,0-8.017,3.589-8.017,8.017v375.182
	h195.608V127.733z"/>
<rect x="158.196" y="444.478" style="fill:#4FC4D4;" width="195.608" height="58.433"/>
<g>
	<path style="fill:#1EA9BD;" d="M256,375.182c-4.428,0-8.017-3.589-8.017-8.017v-8.551c0-4.427,3.588-8.017,8.017-8.017
		c4.428,0,8.017,3.589,8.017,8.017v8.551C264.017,371.592,260.428,375.182,256,375.182z"/>
	<path style="fill:#1EA9BD;" d="M226.071,375.182c-4.428,0-8.017-3.589-8.017-8.017v-8.551c0-4.427,3.588-8.017,8.017-8.017
		s8.017,3.589,8.017,8.017v8.551C234.088,371.592,230.499,375.182,226.071,375.182z"/>
	<path style="fill:#1EA9BD;" d="M285.929,375.182c-4.428,0-8.017-3.589-8.017-8.017v-8.551c0-4.427,3.588-8.017,8.017-8.017
		s8.017,3.589,8.017,8.017v8.551C293.946,371.592,290.357,375.182,285.929,375.182z"/>
	<path style="fill:#1EA9BD;" d="M191.866,375.182c-4.428,0-8.017-3.589-8.017-8.017v-8.551c0-4.427,3.588-8.017,8.017-8.017
		s8.017,3.589,8.017,8.017v8.551C199.883,371.592,196.295,375.182,191.866,375.182z"/>
	<path style="fill:#1EA9BD;" d="M320.134,375.182c-4.428,0-8.017-3.589-8.017-8.017v-8.551c0-4.427,3.588-8.017,8.017-8.017
		c4.428,0,8.017,3.589,8.017,8.017v8.551C328.15,371.592,324.562,375.182,320.134,375.182z"/>
	<path style="fill:#1EA9BD;" d="M256.001,191.153c-4.428,0-8.017-3.589-8.017-8.017v-26.722c0-4.427,3.588-8.017,8.017-8.017
		c4.428,0,8.017,3.589,8.017,8.017v26.722C264.018,187.564,260.43,191.153,256.001,191.153z"/>
	<path style="fill:#1EA9BD;" d="M226.072,191.153c-4.428,0-8.017-3.589-8.017-8.017v-26.722c0-4.427,3.588-8.017,8.017-8.017
		c4.428,0,8.017,3.589,8.017,8.017v26.722C234.089,187.564,230.5,191.153,226.072,191.153z"/>
	<path style="fill:#1EA9BD;" d="M285.93,191.153c-4.428,0-8.017-3.589-8.017-8.017v-26.722c0-4.427,3.588-8.017,8.017-8.017
		c4.428,0,8.017,3.589,8.017,8.017v26.722C293.947,187.564,290.359,191.153,285.93,191.153z"/>
	<path style="fill:#1EA9BD;" d="M191.867,191.153c-4.428,0-8.017-3.589-8.017-8.017v-26.722c0-4.427,3.588-8.017,8.017-8.017
		c4.428,0,8.017,3.589,8.017,8.017v26.722C199.884,187.564,196.296,191.153,191.867,191.153z"/>
	<path style="fill:#1EA9BD;" d="M320.135,191.153c-4.428,0-8.017-3.589-8.017-8.017v-26.722c0-4.427,3.588-8.017,8.017-8.017
		s8.017,3.589,8.017,8.017v26.722C328.151,187.564,324.563,191.153,320.135,191.153z"/>
	<path style="fill:#1EA9BD;" d="M256,229.812c-4.428,0-8.017-3.589-8.017-8.017v-8.551c0-4.427,3.588-8.017,8.017-8.017
		c4.428,0,8.017,3.589,8.017,8.017v8.551C264.017,226.223,260.428,229.812,256,229.812z"/>
	<path style="fill:#1EA9BD;" d="M226.071,229.812c-4.428,0-8.017-3.589-8.017-8.017v-8.551c0-4.427,3.588-8.017,8.017-8.017
		s8.017,3.589,8.017,8.017v8.551C234.088,226.223,230.499,229.812,226.071,229.812z"/>
	<path style="fill:#1EA9BD;" d="M285.929,229.812c-4.428,0-8.017-3.589-8.017-8.017v-8.551c0-4.427,3.588-8.017,8.017-8.017
		s8.017,3.589,8.017,8.017v8.551C293.946,226.223,290.357,229.812,285.929,229.812z"/>
	<path style="fill:#1EA9BD;" d="M191.866,229.812c-4.428,0-8.017-3.589-8.017-8.017v-8.551c0-4.427,3.588-8.017,8.017-8.017
		s8.017,3.589,8.017,8.017v8.551C199.883,226.223,196.295,229.812,191.866,229.812z"/>
	<path style="fill:#1EA9BD;" d="M320.134,229.812c-4.428,0-8.017-3.589-8.017-8.017v-8.551c0-4.427,3.588-8.017,8.017-8.017
		c4.428,0,8.017,3.589,8.017,8.017v8.551C328.15,226.223,324.562,229.812,320.134,229.812z"/>
	<path style="fill:#1EA9BD;" d="M256.002,332.422c-4.428,0-8.017-3.589-8.017-8.017V256c0-4.427,3.588-8.017,8.017-8.017
		c4.428,0,8.017,3.589,8.017,8.017v68.405C264.019,328.832,260.431,332.422,256.002,332.422z"/>
	<path style="fill:#1EA9BD;" d="M226.073,332.422c-4.428,0-8.017-3.589-8.017-8.017V256c0-4.427,3.588-8.017,8.017-8.017
		s8.017,3.589,8.017,8.017v68.405C234.09,328.832,230.502,332.422,226.073,332.422z"/>
	<path style="fill:#1EA9BD;" d="M285.931,332.422c-4.428,0-8.017-3.589-8.017-8.017V256c0-4.427,3.588-8.017,8.017-8.017
		s8.017,3.589,8.017,8.017v68.405C293.948,328.832,290.36,332.422,285.931,332.422z"/>
	<path style="fill:#1EA9BD;" d="M191.869,332.422c-4.428,0-8.017-3.589-8.017-8.017V256c0-4.427,3.588-8.017,8.017-8.017
		s8.017,3.589,8.017,8.017v68.405C199.885,328.832,196.297,332.422,191.869,332.422z"/>
	<path style="fill:#1EA9BD;" d="M320.136,332.422c-4.428,0-8.017-3.589-8.017-8.017V256c0-4.427,3.588-8.017,8.017-8.017
		s8.017,3.589,8.017,8.017v68.405C328.152,328.832,324.564,332.422,320.136,332.422z"/>
	<path style="fill:#1EA9BD;" d="M264.019,401.37c0-4.427-3.588-8.017-8.017-8.017c-4.428,0-8.017,3.589-8.017,8.017v101.545h16.033
		V401.37z"/>
	<path style="fill:#1EA9BD;" d="M234.09,401.37c0-4.427-3.588-8.017-8.017-8.017s-8.017,3.589-8.017,8.017v101.545h16.033V401.37z"
		/>
	<path style="fill:#1EA9BD;" d="M293.948,401.37c0-4.427-3.588-8.017-8.017-8.017s-8.017,3.589-8.017,8.017v101.545h16.033V401.37z"
		/>
</g>
<path style="fill:#DF7A6E;" d="M97.804,503.983c-4.428,0-8.017-3.589-8.017-8.017v-34.205c0-4.427,3.588-8.017,8.017-8.017
	c4.428,0,8.017,3.589,8.017,8.017v34.205C105.82,500.394,102.232,503.983,97.804,503.983z"/>
<path style="fill:#C4DF64;" d="M123.505,414.773c-7.096-20.168-15.503-29.972-25.702-29.972s-18.605,9.804-25.702,29.972
	c-4.618,13.122-7.969,29.062-7.969,37.903c0,18.566,15.105,33.67,33.67,33.67s33.67-15.105,33.67-33.67
	C131.474,443.836,128.123,427.895,123.505,414.773z"/>
<path style="fill:#96CA62;" d="M110.096,474.054c-18.566,0-33.67-15.105-33.67-33.67c0-8.841,3.351-24.781,7.969-37.903
	c2.315-6.579,4.77-12.048,7.381-16.44c-7.549,3.206-14.026,12.685-19.673,28.732c-4.618,13.122-7.969,29.062-7.969,37.903
	c0,18.566,15.105,33.67,33.67,33.67c12.431,0,23.304-6.778,29.136-16.827C121.981,472.398,116.23,474.054,110.096,474.054z"/>
<path style="fill:#DF7A6E;" d="M166.213,503.983c-4.428,0-8.017-3.589-8.017-8.017v-34.205c0-4.427,3.588-8.017,8.017-8.017
	c4.428,0,8.017,3.589,8.017,8.017v34.205C174.23,500.394,170.641,503.983,166.213,503.983z"/>
<path style="fill:#C4DF64;" d="M191.914,414.773c-7.096-20.168-15.503-29.972-25.702-29.972c-10.198,0-18.605,9.804-25.702,29.972
	c-4.618,13.122-7.969,29.062-7.969,37.903c0,18.566,15.105,33.67,33.67,33.67s33.67-15.105,33.67-33.67
	C199.883,443.836,196.532,427.895,191.914,414.773z"/>
<path style="fill:#96CA62;" d="M175.299,477.261c-18.566,0-33.67-15.105-33.67-33.67c0-8.841,3.351-24.781,7.969-37.903
	c2.748-7.811,5.695-14.061,8.864-18.795c-6.817,3.852-12.738,13.067-17.95,27.881c-4.618,13.122-7.969,29.062-7.969,37.903
	c0,18.566,15.105,33.67,33.67,33.67c11.6,0,21.848-5.897,27.906-14.85C188.743,475.135,182.265,477.261,175.299,477.261z"/>
<path style="fill:#DF7A6E;" d="M345.787,503.983c-4.428,0-8.017-3.589-8.017-8.017v-34.205c0-4.427,3.588-8.017,8.017-8.017
	c4.428,0,8.017,3.589,8.017,8.017v34.205C353.804,500.394,350.215,503.983,345.787,503.983z"/>
<path style="fill:#C4DF64;" d="M371.489,414.773c-7.096-20.168-15.503-29.972-25.702-29.972c-10.198,0-18.605,9.804-25.702,29.972
	c-4.618,13.122-7.969,29.062-7.969,37.903c0,18.566,15.105,33.67,33.67,33.67c18.566,0,33.67-15.105,33.67-33.67
	C379.457,443.836,376.106,427.895,371.489,414.773z"/>
<path style="fill:#96CA62;" d="M354.873,477.261c-18.566,0-33.67-15.105-33.67-33.67c0-8.841,3.351-24.781,7.969-37.903
	c2.748-7.811,5.695-14.061,8.864-18.795c-6.817,3.852-12.738,13.067-17.95,27.881c-4.618,13.122-7.969,29.062-7.969,37.903
	c0,18.566,15.105,33.67,33.67,33.67c11.6,0,21.848-5.897,27.906-14.85C368.317,475.135,361.839,477.261,354.873,477.261z"/>
<path style="fill:#DF7A6E;" d="M414.196,503.983c-4.428,0-8.017-3.589-8.017-8.017v-34.205c0-4.427,3.588-8.017,8.017-8.017
	s8.017,3.589,8.017,8.017v34.205C422.213,500.394,418.625,503.983,414.196,503.983z"/>
<path style="fill:#C4DF64;" d="M439.898,414.773c-7.096-20.168-15.503-29.972-25.702-29.972s-18.605,9.804-25.702,29.972
	c-4.618,13.122-7.969,29.062-7.969,37.903c0,18.566,15.105,33.67,33.67,33.67c18.566,0,33.67-15.105,33.67-33.67
	C447.866,443.836,444.515,427.895,439.898,414.773z"/>
<path style="fill:#96CA62;" d="M423.282,477.261c-18.566,0-33.67-15.105-33.67-33.67c0-8.841,3.351-24.781,7.969-37.903
	c2.748-7.811,5.695-14.061,8.864-18.795c-6.817,3.852-12.738,13.067-17.95,27.881c-4.618,13.122-7.969,29.062-7.969,37.903
	c0,18.566,15.105,33.67,33.67,33.67c11.6,0,21.848-5.897,27.906-14.85C436.726,475.135,430.248,477.261,423.282,477.261z"/>
<path style="fill:#7B7979;" d="M499.708,512H12.292c-4.428,0-8.017-3.589-8.017-8.017c0-4.427,3.588-8.017,8.017-8.017h487.415
	c4.428,0,8.017,3.589,8.017,8.017C507.724,508.411,504.136,512,499.708,512z"/>
<g>
</g>
<g>
</g>
<g>
</g>
<g>
</g>
<g>
</g>
<g>
</g>
<g>
</g>
<g>
</g>
<g>
</g>
<g>
</g>
<g>
</g>
<g>
</g>
<g>
</g>
<g>
</g>
<g>
</g>
</svg>
