<svg xmlns="http://www.w3.org/2000/svg" height="582pt" version="1.1" viewBox="1 1 582 582.875" width="582pt">
<g id="surface1">
<path d="M 79.9375 0 L 503.9375 0 C 533.207031 0 556.9375 23.730469 556.9375 53 L 556.9375 583 L 26.9375 583 L 26.9375 53 C 26.9375 23.730469 50.667969 0 79.9375 0 Z M 79.9375 0 " style=" stroke:none;fill-rule:nonzero;fill:rgb(78.039216%,77.254902%,63.529412%);fill-opacity:1;" />
<path d="M 371.4375 79.5 L 530.4375 79.5 C 545.074219 79.5 556.9375 91.363281 556.9375 106 C 556.9375 120.636719 545.074219 132.5 530.4375 132.5 L 371.4375 132.5 C 356.800781 132.5 344.9375 120.636719 344.9375 106 C 344.9375 91.363281 356.800781 79.5 371.4375 79.5 Z M 371.4375 79.5 " style=" stroke:none;fill-rule:nonzero;fill:rgb(70.980392%,67.843137%,51.764706%);fill-opacity:1;" />
<path d="M 371.4375 477 L 530.4375 477 C 545.074219 477 556.9375 488.863281 556.9375 503.5 L 556.9375 556.5 C 556.9375 571.136719 545.074219 583 530.4375 583 L 371.4375 583 C 356.800781 583 344.9375 571.136719 344.9375 556.5 L 344.9375 503.5 C 344.9375 488.863281 356.800781 477 371.4375 477 Z M 371.4375 477 " style=" stroke:none;fill-rule:nonzero;fill:rgb(70.980392%,67.843137%,51.764706%);fill-opacity:1;" />
<path d="M 79.9375 0 L 291.9375 0 C 321.207031 0 344.9375 23.730469 344.9375 53 L 344.9375 583 L 26.9375 583 L 26.9375 53 C 26.9375 23.730469 50.667969 0 79.9375 0 Z M 79.9375 0 " style=" stroke:none;fill-rule:nonzero;fill:rgb(87.058824%,88.235294%,78.431373%);fill-opacity:1;" />
<path d="M 53.4375 185.5 L 79.9375 185.5 C 94.574219 185.5 106.4375 197.363281 106.4375 212 C 106.4375 226.632812 94.574219 238.5 79.9375 238.5 L 53.4375 238.5 C 38.800781 238.5 26.9375 226.632812 26.9375 212 C 26.9375 197.363281 38.800781 185.5 53.4375 185.5 Z M 53.4375 185.5 " style=" stroke:none;fill-rule:nonzero;fill:rgb(94.509804%,94.901961%,90.196078%);fill-opacity:1;" />
<path d="M 265.4375 344.5 L 291.9375 344.5 C 306.570312 344.5 318.4375 356.363281 318.4375 371 C 318.4375 385.632812 306.570312 397.5 291.9375 397.5 L 265.4375 397.5 C 250.800781 397.5 238.9375 385.632812 238.9375 371 C 238.9375 356.363281 250.800781 344.5 265.4375 344.5 Z M 265.4375 344.5 " style=" stroke:none;fill-rule:nonzero;fill:rgb(94.509804%,94.901961%,90.196078%);fill-opacity:1;" />
<path d="M 397.9375 424 L 424.4375 424 C 439.074219 424 450.9375 435.863281 450.9375 450.5 C 450.9375 465.132812 439.074219 477 424.4375 477 L 397.9375 477 C 383.300781 477 371.4375 465.132812 371.4375 450.5 C 371.4375 435.863281 383.300781 424 397.9375 424 Z M 397.9375 424 " style=" stroke:none;fill-rule:nonzero;fill:rgb(87.058824%,88.235294%,78.431373%);fill-opacity:1;" />
<path d="M 503.9375 424 L 530.4375 424 C 545.074219 424 556.9375 435.863281 556.9375 450.5 C 556.9375 465.132812 545.074219 477 530.4375 477 L 503.9375 477 C 489.300781 477 477.4375 465.132812 477.4375 450.5 C 477.4375 435.863281 489.300781 424 503.9375 424 Z M 503.9375 424 " style=" stroke:none;fill-rule:nonzero;fill:rgb(87.058824%,88.235294%,78.431373%);fill-opacity:1;" />
<path d="M 503.9375 238.5 L 530.4375 238.5 C 545.074219 238.5 556.9375 250.363281 556.9375 265 C 556.9375 279.636719 545.074219 291.5 530.4375 291.5 L 503.9375 291.5 C 489.300781 291.5 477.4375 279.636719 477.4375 265 C 477.4375 250.363281 489.300781 238.5 503.9375 238.5 Z M 503.9375 238.5 " style=" stroke:none;fill-rule:nonzero;fill:rgb(87.058824%,88.235294%,78.431373%);fill-opacity:1;" />
<path d="M 344.9375 318 L 318.4375 318 C 303.800781 318 291.9375 306.136719 291.9375 291.5 C 291.9375 276.867188 303.800781 265 318.4375 265 L 344.9375 265 Z M 344.9375 318 " style=" stroke:none;fill-rule:nonzero;fill:rgb(94.509804%,94.901961%,90.196078%);fill-opacity:1;" />
<path d="M 106.4375 424 L 132.9375 424 C 147.570312 424 159.4375 435.863281 159.4375 450.5 C 159.4375 465.132812 147.570312 477 132.9375 477 L 106.4375 477 C 91.800781 477 79.9375 465.132812 79.9375 450.5 C 79.9375 435.863281 91.800781 424 106.4375 424 Z M 106.4375 424 " style=" stroke:none;fill-rule:nonzero;fill:rgb(94.509804%,94.901961%,90.196078%);fill-opacity:1;" />
<path d="M 53.4375 79.5 L 318.4375 79.5 C 333.074219 79.5 344.9375 91.363281 344.9375 106 C 344.9375 120.636719 333.074219 132.5 318.4375 132.5 L 53.4375 132.5 C 38.800781 132.5 26.9375 120.636719 26.9375 106 C 26.9375 91.363281 38.800781 79.5 53.4375 79.5 Z M 53.4375 79.5 " style=" stroke:none;fill-rule:nonzero;fill:rgb(78.039216%,77.254902%,63.529412%);fill-opacity:1;" />
<path d="M 53.4375 477 L 318.4375 477 C 333.074219 477 344.9375 488.863281 344.9375 503.5 L 344.9375 556.5 C 344.9375 571.136719 333.074219 583 318.4375 583 L 53.4375 583 C 38.800781 583 26.9375 571.136719 26.9375 556.5 L 26.9375 503.5 C 26.9375 488.863281 38.800781 477 53.4375 477 Z M 53.4375 477 " style=" stroke:none;fill-rule:nonzero;fill:rgb(78.039216%,77.254902%,63.529412%);fill-opacity:1;" />
<path d="M 106.4375 397.5 L 265.4375 397.5 L 265.4375 530 L 106.4375 530 Z M 106.4375 397.5 " style=" stroke:none;fill-rule:nonzero;fill:rgb(70.980392%,67.843137%,51.764706%);fill-opacity:1;" />
<path d="M 132.9375 477 C 147.574219 476.996094 159.433594 465.125 159.425781 450.488281 C 159.421875 435.863281 147.566406 424.007812 132.9375 424 L 106.4375 424 L 106.4375 477 Z M 132.9375 477 " style=" stroke:none;fill-rule:nonzero;fill:rgb(78.039216%,77.254902%,63.529412%);fill-opacity:1;" />
<path d="M 26.9375 530 L 556.9375 530 C 571.570312 530 583.4375 541.863281 583.4375 556.5 C 583.4375 571.132812 571.570312 583 556.9375 583 L 26.9375 583 C 12.300781 583 0.4375 571.136719 0.4375 556.5 C 0.4375 541.863281 12.300781 530 26.9375 530 Z M 26.9375 530 " style=" stroke:none;fill-rule:nonzero;fill:rgb(78.039216%,77.254902%,63.529412%);fill-opacity:1;" />
<path d="M 26.9375 530 L 344.9375 530 C 359.574219 530 371.4375 541.863281 371.4375 556.5 C 371.4375 571.132812 359.574219 583 344.9375 583 L 26.9375 583 C 12.300781 583 0.4375 571.136719 0.4375 556.5 C 0.4375 541.863281 12.300781 530 26.9375 530 Z M 26.9375 530 " style=" stroke:none;fill-rule:nonzero;fill:rgb(87.058824%,88.235294%,78.431373%);fill-opacity:1;" />
<path d="M 26.9375 53 L 556.9375 53 C 571.570312 53 583.4375 64.863281 583.4375 79.5 C 583.4375 94.136719 571.570312 106 556.9375 106 L 26.9375 106 C 12.300781 106 0.4375 94.136719 0.4375 79.5 C 0.4375 64.863281 12.300781 53 26.9375 53 Z M 26.9375 53 " style=" stroke:none;fill-rule:nonzero;fill:rgb(78.039216%,77.254902%,63.529412%);fill-opacity:1;" />
<path d="M 26.9375 53 L 344.9375 53 C 359.574219 53 371.4375 64.863281 371.4375 79.5 C 371.4375 94.136719 359.574219 106 344.9375 106 L 26.9375 106 C 12.300781 106 0.4375 94.136719 0.4375 79.5 C 0.4375 64.863281 12.300781 53 26.9375 53 Z M 26.9375 53 " style=" stroke:none;fill-rule:nonzero;fill:rgb(87.058824%,88.235294%,78.431373%);fill-opacity:1;" />
<path d="M 106.4375 53 L 132.9375 53 C 147.570312 53 159.4375 64.863281 159.4375 79.5 C 159.4375 94.136719 147.570312 106 132.9375 106 L 106.4375 106 C 91.800781 106 79.9375 94.136719 79.9375 79.5 C 79.9375 64.863281 91.800781 53 106.4375 53 Z M 106.4375 53 " style=" stroke:none;fill-rule:nonzero;fill:rgb(94.509804%,94.901961%,90.196078%);fill-opacity:1;" />
<path d="M 450.9375 53 L 477.4375 53 C 492.070312 53 503.9375 64.863281 503.9375 79.5 C 503.9375 94.136719 492.070312 106 477.4375 106 L 450.9375 106 C 436.300781 106 424.4375 94.136719 424.4375 79.5 C 424.4375 64.863281 436.300781 53 450.9375 53 Z M 450.9375 53 " style=" stroke:none;fill-rule:nonzero;fill:rgb(87.058824%,88.235294%,78.431373%);fill-opacity:1;" />
<path d="M 185.9375 371 C 215.207031 371 238.9375 394.730469 238.9375 424 L 238.9375 530 L 132.9375 530 L 132.9375 424 C 132.9375 394.730469 156.664062 371 185.9375 371 Z M 185.9375 371 " style=" stroke:none;fill-rule:nonzero;fill:rgb(34.901961%,16.078431%,5.098039%);fill-opacity:1;" />
<path d="M 159.4375 397.5 C 174.074219 397.5 185.9375 409.363281 185.9375 424 L 185.9375 503.5 C 185.9375 518.136719 174.074219 530 159.4375 530 C 144.800781 530 132.9375 518.136719 132.9375 503.5 L 132.9375 424 C 132.9375 409.363281 144.800781 397.5 159.4375 397.5 Z M 159.4375 397.5 " style=" stroke:none;fill-rule:nonzero;fill:rgb(20.784314%,4.313725%,0%);fill-opacity:1;" />
<path d="M 106.4375 238.5 C 121.074219 238.5 132.9375 250.363281 132.9375 265 L 132.9375 318 L 79.9375 318 L 79.9375 265 C 79.9375 250.363281 91.800781 238.5 106.4375 238.5 Z M 106.4375 238.5 " style=" stroke:none;fill-rule:nonzero;fill:rgb(34.901961%,16.078431%,5.098039%);fill-opacity:1;" />
<path d="M 185.9375 238.5 C 200.574219 238.5 212.4375 250.363281 212.4375 265 L 212.4375 318 L 159.4375 318 L 159.4375 265 C 159.4375 250.363281 171.300781 238.5 185.9375 238.5 Z M 185.9375 238.5 " style=" stroke:none;fill-rule:nonzero;fill:rgb(34.901961%,16.078431%,5.098039%);fill-opacity:1;" />
<path d="M 265.4375 238.5 C 280.074219 238.5 291.9375 250.363281 291.9375 265 L 291.9375 318 L 238.9375 318 L 238.9375 265 C 238.9375 250.363281 250.800781 238.5 265.4375 238.5 Z M 265.4375 238.5 " style=" stroke:none;fill-rule:nonzero;fill:rgb(34.901961%,16.078431%,5.098039%);fill-opacity:1;" />
<path d="M 106.4375 132.5 C 121.074219 132.5 132.9375 144.363281 132.9375 159 L 132.9375 212 L 79.9375 212 L 79.9375 159 C 79.9375 144.363281 91.800781 132.5 106.4375 132.5 Z M 106.4375 132.5 " style=" stroke:none;fill-rule:nonzero;fill:rgb(34.901961%,16.078431%,5.098039%);fill-opacity:1;" />
<path d="M 185.9375 132.5 C 200.574219 132.5 212.4375 144.363281 212.4375 159 L 212.4375 212 L 159.4375 212 L 159.4375 159 C 159.4375 144.363281 171.300781 132.5 185.9375 132.5 Z M 185.9375 132.5 " style=" stroke:none;fill-rule:nonzero;fill:rgb(34.901961%,16.078431%,5.098039%);fill-opacity:1;" />
<path d="M 265.4375 132.5 C 280.074219 132.5 291.9375 144.363281 291.9375 159 L 291.9375 212 L 238.9375 212 L 238.9375 159 C 238.9375 144.363281 250.800781 132.5 265.4375 132.5 Z M 265.4375 132.5 " style=" stroke:none;fill-rule:nonzero;fill:rgb(34.901961%,16.078431%,5.098039%);fill-opacity:1;" />
<path d="M 424.4375 132.5 C 439.074219 132.5 450.9375 144.363281 450.9375 159 L 450.9375 212 L 397.9375 212 L 397.9375 159 C 397.9375 144.363281 409.800781 132.5 424.4375 132.5 Z M 424.4375 132.5 " style=" stroke:none;fill-rule:nonzero;fill:rgb(34.901961%,16.078431%,5.098039%);fill-opacity:1;" />
<path d="M 424.4375 238.5 C 439.074219 238.5 450.9375 250.363281 450.9375 265 L 450.9375 318 L 397.9375 318 L 397.9375 265 C 397.9375 250.363281 409.800781 238.5 424.4375 238.5 Z M 424.4375 238.5 " style=" stroke:none;fill-rule:nonzero;fill:rgb(34.901961%,16.078431%,5.098039%);fill-opacity:1;" />
<path d="M 424.4375 344.5 C 439.074219 344.5 450.9375 356.363281 450.9375 371 L 450.9375 424 L 397.9375 424 L 397.9375 371 C 397.9375 356.363281 409.800781 344.5 424.4375 344.5 Z M 424.4375 344.5 " style=" stroke:none;fill-rule:nonzero;fill:rgb(34.901961%,16.078431%,5.098039%);fill-opacity:1;" />
<path d="M 503.9375 132.5 C 518.574219 132.5 530.4375 144.363281 530.4375 159 L 530.4375 212 L 477.4375 212 L 477.4375 159 C 477.4375 144.363281 489.300781 132.5 503.9375 132.5 Z M 503.9375 132.5 " style=" stroke:none;fill-rule:nonzero;fill:rgb(34.901961%,16.078431%,5.098039%);fill-opacity:1;" />
<path d="M 503.9375 238.5 C 518.574219 238.5 530.4375 250.363281 530.4375 265 L 530.4375 318 L 477.4375 318 L 477.4375 265 C 477.4375 250.363281 489.300781 238.5 503.9375 238.5 Z M 503.9375 238.5 " style=" stroke:none;fill-rule:nonzero;fill:rgb(34.901961%,16.078431%,5.098039%);fill-opacity:1;" />
<path d="M 503.9375 344.5 C 518.574219 344.5 530.4375 356.363281 530.4375 371 L 530.4375 424 L 477.4375 424 L 477.4375 371 C 477.4375 356.363281 489.300781 344.5 503.9375 344.5 Z M 503.9375 344.5 " style=" stroke:none;fill-rule:nonzero;fill:rgb(34.901961%,16.078431%,5.098039%);fill-opacity:1;" />
<path d="M 159.4375 344.5 L 212.4375 344.5 C 241.710938 344.5 265.4375 368.230469 265.4375 397.5 L 265.4375 424 L 106.4375 424 L 106.4375 397.5 C 106.4375 368.230469 130.167969 344.5 159.4375 344.5 Z M 159.4375 344.5 " style=" stroke:none;fill-rule:nonzero;fill:rgb(0%,29.411765%,12.941176%);fill-opacity:1;" />
<path d="M 159.4375 344.5 C 188.707031 344.5 212.4375 368.230469 212.4375 397.5 L 212.4375 424 L 106.4375 424 L 106.4375 397.5 C 106.4375 368.230469 130.167969 344.5 159.4375 344.5 Z M 159.4375 344.5 " style=" stroke:none;fill-rule:nonzero;fill:rgb(0%,44.313725%,25.098039%);fill-opacity:1;" />
<path d="M 185.9375 357.75 C 185.9375 350.433594 174.074219 344.5 159.4375 344.5 C 144.800781 344.5 132.9375 350.433594 132.9375 357.75 C 132.9375 365.066406 144.800781 371 159.4375 371 C 174.074219 371 185.9375 365.066406 185.9375 357.75 Z M 185.9375 357.75 " style=" stroke:none;fill-rule:nonzero;fill:rgb(19.607843%,62.745098%,39.607843%);fill-opacity:1;" />
<path d="M 93.1875 159 C 100.503906 159 106.4375 164.933594 106.4375 172.25 L 106.4375 198.75 C 106.4375 206.066406 100.503906 212 93.1875 212 C 85.871094 212 79.9375 206.066406 79.9375 198.75 L 79.9375 172.25 C 79.9375 164.933594 85.871094 159 93.1875 159 Z M 93.1875 159 " style=" stroke:none;fill-rule:nonzero;fill:rgb(20.784314%,4.313725%,0%);fill-opacity:1;" />
<path d="M 172.6875 159 C 180.003906 159 185.9375 164.933594 185.9375 172.25 L 185.9375 198.75 C 185.9375 206.066406 180.003906 212 172.6875 212 C 165.371094 212 159.4375 206.066406 159.4375 198.75 L 159.4375 172.25 C 159.4375 164.933594 165.371094 159 172.6875 159 Z M 172.6875 159 " style=" stroke:none;fill-rule:nonzero;fill:rgb(20.784314%,4.313725%,0%);fill-opacity:1;" />
<path d="M 252.1875 159 C 259.503906 159 265.4375 164.933594 265.4375 172.25 L 265.4375 198.75 C 265.4375 206.066406 259.503906 212 252.1875 212 C 244.871094 212 238.9375 206.066406 238.9375 198.75 L 238.9375 172.25 C 238.9375 164.933594 244.871094 159 252.1875 159 Z M 252.1875 159 " style=" stroke:none;fill-rule:nonzero;fill:rgb(20.784314%,4.313725%,0%);fill-opacity:1;" />
<path d="M 411.1875 159 C 418.503906 159 424.4375 164.933594 424.4375 172.25 L 424.4375 198.75 C 424.4375 206.066406 418.503906 212 411.1875 212 C 403.871094 212 397.9375 206.066406 397.9375 198.75 L 397.9375 172.25 C 397.9375 164.933594 403.871094 159 411.1875 159 Z M 411.1875 159 " style=" stroke:none;fill-rule:nonzero;fill:rgb(20.784314%,4.313725%,0%);fill-opacity:1;" />
<path d="M 490.6875 159 C 498.003906 159 503.9375 164.933594 503.9375 172.25 L 503.9375 198.75 C 503.9375 206.066406 498.003906 212 490.6875 212 C 483.371094 212 477.4375 206.066406 477.4375 198.75 L 477.4375 172.25 C 477.4375 164.933594 483.371094 159 490.6875 159 Z M 490.6875 159 " style=" stroke:none;fill-rule:nonzero;fill:rgb(20.784314%,4.313725%,0%);fill-opacity:1;" />
<path d="M 411.1875 265 C 418.503906 265 424.4375 270.933594 424.4375 278.25 L 424.4375 304.75 C 424.4375 312.066406 418.503906 318 411.1875 318 C 403.871094 318 397.9375 312.066406 397.9375 304.75 L 397.9375 278.25 C 397.9375 270.933594 403.871094 265 411.1875 265 Z M 411.1875 265 " style=" stroke:none;fill-rule:nonzero;fill:rgb(20.784314%,4.313725%,0%);fill-opacity:1;" />
<path d="M 490.6875 265 C 498.003906 265 503.9375 270.933594 503.9375 278.25 L 503.9375 304.75 C 503.9375 312.066406 498.003906 318 490.6875 318 C 483.371094 318 477.4375 312.066406 477.4375 304.75 L 477.4375 278.25 C 477.4375 270.933594 483.371094 265 490.6875 265 Z M 490.6875 265 " style=" stroke:none;fill-rule:nonzero;fill:rgb(20.784314%,4.313725%,0%);fill-opacity:1;" />
<path d="M 411.1875 371 C 418.503906 371 424.4375 376.933594 424.4375 384.25 L 424.4375 410.75 C 424.4375 418.066406 418.503906 424 411.1875 424 C 403.871094 424 397.9375 418.066406 397.9375 410.75 L 397.9375 384.25 C 397.9375 376.933594 403.871094 371 411.1875 371 Z M 411.1875 371 " style=" stroke:none;fill-rule:nonzero;fill:rgb(20.784314%,4.313725%,0%);fill-opacity:1;" />
<path d="M 490.6875 371 C 498.003906 371 503.9375 376.933594 503.9375 384.25 L 503.9375 410.75 C 503.9375 418.066406 498.003906 424 490.6875 424 C 483.371094 424 477.4375 418.066406 477.4375 410.75 L 477.4375 384.25 C 477.4375 376.933594 483.371094 371 490.6875 371 Z M 490.6875 371 " style=" stroke:none;fill-rule:nonzero;fill:rgb(20.784314%,4.313725%,0%);fill-opacity:1;" />
<path d="M 93.1875 265 C 100.503906 265 106.4375 270.933594 106.4375 278.25 L 106.4375 304.75 C 106.4375 312.066406 100.503906 318 93.1875 318 C 85.871094 318 79.9375 312.066406 79.9375 304.75 L 79.9375 278.25 C 79.9375 270.933594 85.871094 265 93.1875 265 Z M 93.1875 265 " style=" stroke:none;fill-rule:nonzero;fill:rgb(20.784314%,4.313725%,0%);fill-opacity:1;" />
<path d="M 172.6875 265 C 180.003906 265 185.9375 270.933594 185.9375 278.25 L 185.9375 304.75 C 185.9375 312.066406 180.003906 318 172.6875 318 C 165.371094 318 159.4375 312.066406 159.4375 304.75 L 159.4375 278.25 C 159.4375 270.933594 165.371094 265 172.6875 265 Z M 172.6875 265 " style=" stroke:none;fill-rule:nonzero;fill:rgb(20.784314%,4.313725%,0%);fill-opacity:1;" />
<path d="M 252.1875 265 C 259.503906 265 265.4375 270.933594 265.4375 278.25 L 265.4375 304.75 C 265.4375 312.066406 259.503906 318 252.1875 318 C 244.871094 318 238.9375 312.066406 238.9375 304.75 L 238.9375 278.25 C 238.9375 270.933594 244.871094 265 252.1875 265 Z M 252.1875 265 " style=" stroke:none;fill-rule:nonzero;fill:rgb(20.784314%,4.313725%,0%);fill-opacity:1;" />
<path d="M 384.6875 132.5 C 392.003906 132.5 397.9375 138.433594 397.9375 145.75 L 397.9375 198.75 C 397.9375 206.066406 392.003906 212 384.6875 212 C 377.371094 212 371.4375 206.066406 371.4375 198.75 L 371.4375 145.75 C 371.4375 138.433594 377.371094 132.5 384.6875 132.5 Z M 384.6875 132.5 " style=" stroke:none;fill-rule:nonzero;fill:rgb(87.058824%,88.235294%,78.431373%);fill-opacity:1;" />
<path d="M 464.1875 132.5 C 471.503906 132.5 477.4375 138.433594 477.4375 145.75 L 477.4375 198.75 C 477.4375 206.066406 471.503906 212 464.1875 212 C 456.871094 212 450.9375 206.066406 450.9375 198.75 L 450.9375 145.75 C 450.9375 138.433594 456.871094 132.5 464.1875 132.5 Z M 464.1875 132.5 " style=" stroke:none;fill-rule:nonzero;fill:rgb(87.058824%,88.235294%,78.431373%);fill-opacity:1;" />
<path d="M 66.6875 132.5 C 74.003906 132.5 79.9375 138.433594 79.9375 145.75 L 79.9375 198.75 C 79.9375 206.066406 74.003906 212 66.6875 212 C 59.371094 212 53.4375 206.066406 53.4375 198.75 L 53.4375 145.75 C 53.4375 138.433594 59.371094 132.5 66.6875 132.5 Z M 66.6875 132.5 " style=" stroke:none;fill-rule:nonzero;fill:rgb(94.509804%,94.901961%,90.196078%);fill-opacity:1;" />
<path d="M 146.1875 132.5 C 153.503906 132.5 159.4375 138.433594 159.4375 145.75 L 159.4375 198.75 C 159.4375 206.066406 153.503906 212 146.1875 212 C 138.871094 212 132.9375 206.066406 132.9375 198.75 L 132.9375 145.75 C 132.9375 138.433594 138.871094 132.5 146.1875 132.5 Z M 146.1875 132.5 " style=" stroke:none;fill-rule:nonzero;fill:rgb(94.509804%,94.901961%,90.196078%);fill-opacity:1;" />
<path d="M 225.6875 132.5 C 233.003906 132.5 238.9375 138.433594 238.9375 145.75 L 238.9375 198.75 C 238.9375 206.066406 233.003906 212 225.6875 212 C 218.371094 212 212.4375 206.066406 212.4375 198.75 L 212.4375 145.75 C 212.4375 138.433594 218.371094 132.5 225.6875 132.5 Z M 225.6875 132.5 " style=" stroke:none;fill-rule:nonzero;fill:rgb(94.509804%,94.901961%,90.196078%);fill-opacity:1;" />
<path d="M 66.6875 238.5 C 74.003906 238.5 79.9375 244.433594 79.9375 251.75 L 79.9375 304.75 C 79.9375 312.066406 74.003906 318 66.6875 318 C 59.371094 318 53.4375 312.066406 53.4375 304.75 L 53.4375 251.75 C 53.4375 244.433594 59.371094 238.5 66.6875 238.5 Z M 66.6875 238.5 " style=" stroke:none;fill-rule:nonzero;fill:rgb(94.509804%,94.901961%,90.196078%);fill-opacity:1;" />
<path d="M 146.1875 238.5 C 153.503906 238.5 159.4375 244.433594 159.4375 251.75 L 159.4375 304.75 C 159.4375 312.066406 153.503906 318 146.1875 318 C 138.871094 318 132.9375 312.066406 132.9375 304.75 L 132.9375 251.75 C 132.9375 244.433594 138.871094 238.5 146.1875 238.5 Z M 146.1875 238.5 " style=" stroke:none;fill-rule:nonzero;fill:rgb(94.509804%,94.901961%,90.196078%);fill-opacity:1;" />
<path d="M 225.6875 238.5 C 233.003906 238.5 238.9375 244.433594 238.9375 251.75 L 238.9375 304.75 C 238.9375 312.066406 233.003906 318 225.6875 318 C 218.371094 318 212.4375 312.066406 212.4375 304.75 L 212.4375 251.75 C 212.4375 244.433594 218.371094 238.5 225.6875 238.5 Z M 225.6875 238.5 " style=" stroke:none;fill-rule:nonzero;fill:rgb(94.509804%,94.901961%,90.196078%);fill-opacity:1;" />
<path d="M 384.6875 238.5 C 392.003906 238.5 397.9375 244.433594 397.9375 251.75 L 397.9375 304.75 C 397.9375 312.066406 392.003906 318 384.6875 318 C 377.371094 318 371.4375 312.066406 371.4375 304.75 L 371.4375 251.75 C 371.4375 244.433594 377.371094 238.5 384.6875 238.5 Z M 384.6875 238.5 " style=" stroke:none;fill-rule:nonzero;fill:rgb(87.058824%,88.235294%,78.431373%);fill-opacity:1;" />
<path d="M 464.1875 238.5 C 471.503906 238.5 477.4375 244.433594 477.4375 251.75 L 477.4375 304.75 C 477.4375 312.066406 471.503906 318 464.1875 318 C 456.871094 318 450.9375 312.066406 450.9375 304.75 L 450.9375 251.75 C 450.9375 244.433594 456.871094 238.5 464.1875 238.5 Z M 464.1875 238.5 " style=" stroke:none;fill-rule:nonzero;fill:rgb(87.058824%,88.235294%,78.431373%);fill-opacity:1;" />
<path d="M 384.6875 344.5 C 392.003906 344.5 397.9375 350.433594 397.9375 357.75 L 397.9375 410.75 C 397.9375 418.066406 392.003906 424 384.6875 424 C 377.371094 424 371.4375 418.066406 371.4375 410.75 L 371.4375 357.75 C 371.4375 350.433594 377.371094 344.5 384.6875 344.5 Z M 384.6875 344.5 " style=" stroke:none;fill-rule:nonzero;fill:rgb(87.058824%,88.235294%,78.431373%);fill-opacity:1;" />
<path d="M 464.1875 344.5 C 471.503906 344.5 477.4375 350.433594 477.4375 357.75 L 477.4375 410.75 C 477.4375 418.066406 471.503906 424 464.1875 424 C 456.871094 424 450.9375 418.066406 450.9375 410.75 L 450.9375 357.75 C 450.9375 350.433594 456.871094 344.5 464.1875 344.5 Z M 464.1875 344.5 " style=" stroke:none;fill-rule:nonzero;fill:rgb(87.058824%,88.235294%,78.431373%);fill-opacity:1;" />
<path d="M 93.1875 0 L 278.6875 0 C 286.003906 0 291.9375 5.933594 291.9375 13.25 C 291.9375 20.566406 286.003906 26.5 278.6875 26.5 L 93.1875 26.5 C 85.871094 26.5 79.9375 20.566406 79.9375 13.25 C 79.9375 5.933594 85.871094 0 93.1875 0 Z M 93.1875 0 " style=" stroke:none;fill-rule:nonzero;fill:rgb(93.333333%,93.72549%,88.235294%);fill-opacity:1;" />
<path d="M 199.1875 53 L 331.6875 53 C 339.003906 53 344.9375 58.933594 344.9375 66.25 C 344.9375 73.566406 339.003906 79.5 331.6875 79.5 L 199.1875 79.5 C 191.871094 79.5 185.9375 73.566406 185.9375 66.25 C 185.9375 58.933594 191.871094 53 199.1875 53 Z M 199.1875 53 " style=" stroke:none;fill-rule:nonzero;fill:rgb(93.333333%,93.72549%,88.235294%);fill-opacity:1;" />
<path d="M 40.1875 53 L 66.6875 53 C 74.003906 53 79.9375 58.933594 79.9375 66.25 C 79.9375 73.566406 74.003906 79.5 66.6875 79.5 L 40.1875 79.5 C 32.871094 79.5 26.9375 73.566406 26.9375 66.25 C 26.9375 58.933594 32.871094 53 40.1875 53 Z M 40.1875 53 " style=" stroke:none;fill-rule:nonzero;fill:rgb(93.333333%,93.72549%,88.235294%);fill-opacity:1;" />
<path d="M 40.1875 556.5 L 331.6875 556.5 C 339.003906 556.5 344.9375 562.429688 344.9375 569.75 C 344.9375 577.066406 339.003906 583 331.6875 583 L 40.1875 583 C 32.871094 583 26.9375 577.066406 26.9375 569.75 C 26.9375 562.429688 32.871094 556.5 40.1875 556.5 Z M 40.1875 556.5 " style=" stroke:none;fill-rule:nonzero;fill:rgb(78.039216%,77.254902%,63.529412%);fill-opacity:1;" />
<path d="M 384.6875 556.5 L 543.6875 556.5 C 551.003906 556.5 556.9375 562.429688 556.9375 569.75 C 556.9375 577.066406 551.003906 583 543.6875 583 L 384.6875 583 C 377.371094 583 371.4375 577.066406 371.4375 569.75 C 371.4375 562.429688 377.371094 556.5 384.6875 556.5 Z M 384.6875 556.5 " style=" stroke:none;fill-rule:nonzero;fill:rgb(70.980392%,67.843137%,51.764706%);fill-opacity:1;" />
<path d="M 225.6875 397.5 L 252.1875 397.5 C 259.503906 397.5 265.4375 403.433594 265.4375 410.75 C 265.4375 418.066406 259.503906 424 252.1875 424 L 225.6875 424 C 218.371094 424 212.4375 418.066406 212.4375 410.75 C 212.4375 403.433594 218.371094 397.5 225.6875 397.5 Z M 225.6875 397.5 " style=" stroke:none;fill-rule:nonzero;fill:rgb(0%,21.568627%,7.45098%);fill-opacity:1;" />
<path d="M 119.6875 397.5 L 199.1875 397.5 C 206.503906 397.5 212.4375 403.433594 212.4375 410.75 C 212.4375 418.066406 206.503906 424 199.1875 424 L 119.6875 424 C 112.371094 424 106.4375 418.066406 106.4375 410.75 C 106.4375 403.433594 112.371094 397.5 119.6875 397.5 Z M 119.6875 397.5 " style=" stroke:none;fill-rule:nonzero;fill:rgb(0%,29.411765%,12.941176%);fill-opacity:1;" />
<path d="M 53.4375 344.5 L 79.9375 344.5 C 94.574219 344.5 106.4375 356.363281 106.4375 371 C 106.4375 385.632812 94.574219 397.5 79.9375 397.5 L 53.4375 397.5 C 38.800781 397.5 26.9375 385.632812 26.9375 371 C 26.9375 356.363281 38.800781 344.5 53.4375 344.5 Z M 53.4375 344.5 " style=" stroke:none;fill-rule:nonzero;fill:rgb(94.509804%,94.901961%,90.196078%);fill-opacity:1;" />
<path d="M 344.9375 477 L 318.4375 477 C 303.800781 477 291.9375 465.136719 291.9375 450.5 C 291.9375 435.867188 303.800781 424 318.4375 424 L 344.9375 424 Z M 344.9375 477 " style=" stroke:none;fill-rule:nonzero;fill:rgb(94.509804%,94.901961%,90.196078%);fill-opacity:1;" />
<path d="M 26.9375 424 C 41.574219 424 53.4375 435.863281 53.4375 450.5 C 53.4375 465.132812 41.574219 477 26.9375 477 Z M 26.9375 424 " style=" stroke:none;fill-rule:nonzero;fill:rgb(94.509804%,94.901961%,90.196078%);fill-opacity:1;" />
</g>
</svg>