<?xml version="1.0" encoding="iso-8859-1"?>
<!-- Generator: Adobe Illustrator 19.0.0, SVG Export Plug-In . SVG Version: 6.00 Build 0)  -->
<svg version="1.1" id="Capa_1" xmlns="http://www.w3.org/2000/svg" xmlns:xlink="http://www.w3.org/1999/xlink" x="0px" y="0px"
	 viewBox="0 0 512 512" style="enable-background:new 0 0 512 512;" xml:space="preserve">
<polygon style="fill:#A1A1A1;" points="0,150 0,512 120,512 256,150 "/>
<polygon style="fill:#828282;" points="512,150 256,150 392,512 512,512 "/>
<polygon style="fill:#18E0FF;" points="256,512 392,512 392,345 196,285 "/>
<polygon style="fill:#B2F5FF;" points="120,345 120,512 256,512 256,285 "/>
<polygon style="fill:#A1A1A1;" points="196,195 256,345 392,345 392,255 "/>
<polygon style="fill:#C0C0C0;" points="256,195 120,255 120,345 256,345 "/>
<polygon style="fill:#828282;" points="362,0 256,0 196,90 362,90 "/>
<rect x="150" style="fill:#A1A1A1;" width="106" height="90"/>
<g>
	<rect x="45" y="210" style="fill:#FFFFFF;" width="30" height="60"/>
	<rect x="45" y="300" style="fill:#FFFFFF;" width="30" height="60"/>
</g>
<g>
	<rect x="437" y="210" style="fill:#B2F5FF;" width="30" height="60"/>
	<rect x="437" y="300" style="fill:#B2F5FF;" width="30" height="60"/>
</g>
<polygon style="fill:#18E0FF;" points="216,110 256,255 392,255 392,150 "/>
<polygon style="fill:#B2F5FF;" points="120,150 120,255 256,255 256,110 "/>
<polygon style="fill:#A1A1A1;" points="392,60 256,60 226,105 256,150 392,150 "/>
<rect x="120" y="60" style="fill:#C0C0C0;" width="136" height="90"/>
<g>
</g>
<g>
</g>
<g>
</g>
<g>
</g>
<g>
</g>
<g>
</g>
<g>
</g>
<g>
</g>
<g>
</g>
<g>
</g>
<g>
</g>
<g>
</g>
<g>
</g>
<g>
</g>
<g>
</g>
</svg>
