<svg height="512.001pt" viewBox="0 0 512.001 512.001" width="512.001pt" xmlns="http://www.w3.org/2000/svg"><path d="m43.78125 260.636719h424.4375v235.910156h-424.4375zm0 0" fill="#ff573d"/><path d="m437.3125 260.636719h30.90625v235.910156h-30.90625zm0 0" fill="#e64028"/><path d="m300.296875 496.546875h-203.976563v-155.558594c0-2.273437 1.847657-4.121093 4.121094-4.121093h195.734375c2.277344 0 4.121094 1.847656 4.121094 4.121093zm0 0" fill="#cee8f2"/><path d="m300.296875 496.546875h-30.902344v-159.679687h26.785157c2.273437 0 4.121093 1.847656 4.121093 4.121093v155.558594zm0 0" fill="#9ad5ed"/><path d="m418.769531 496.546875h-84.476562v-155.558594c0-2.273437 1.847656-4.121093 4.121093-4.121093h76.234376c2.277343 0 4.121093 1.847656 4.121093 4.121093zm0 0" fill="#ffd659"/><path d="m418.769531 496.546875h-30.90625v-159.679687h26.785157c2.277343 0 4.121093 1.847656 4.121093 4.121093zm0 0" fill="#ffbd54"/><path d="m369.320312 412.589844c0 4.265625-3.460937 7.722656-7.726562 7.722656s-7.726562-3.457031-7.726562-7.722656c0-4.269532 3.460937-7.726563 7.726562-7.726563s7.726562 3.457031 7.726562 7.726563zm0 0" fill="#ff573d"/><path d="m269.390625 496.546875h-142.164063v-48.417969c0-2.277344 1.84375-4.121094 4.121094-4.121094h133.925782c2.273437 0 4.121093 1.84375 4.121093 4.121094v48.417969zm0 0" fill="#716680"/><path d="m269.390625 496.546875h-30.902344v-52.539063h26.785157c2.273437 0 4.121093 1.84375 4.121093 4.121094v48.417969zm0 0" fill="#635870"/><path d="m484.699219 206.550781h-457.398438v-202.550781c0-2.210938 1.789063-4 4-4h449.398438c2.210937 0 4 1.789062 4 4zm0 0" fill="#716680"/><path d="m484.699219 206.550781h-30.902344v-206.550781h26.902344c2.210937 0 4 1.789062 4 4zm0 0" fill="#635870"/><path d="m52.710938 301.328125c-14.035157 0-25.410157-11.378906-25.410157-25.410156v-34.339844h50.820313v34.339844c0 14.03125-11.375 25.410156-25.410156 25.410156zm0 0" fill="#e8e1d5"/><path d="m103.53125 301.328125c-14.03125 0-25.410156-11.378906-25.410156-25.410156v-34.339844h50.824218v34.339844c0 14.03125-11.378906 25.410156-25.414062 25.410156zm0 0" fill="#89ceea"/><path d="m154.355469 301.328125c-14.035157 0-25.410157-11.378906-25.410157-25.410156v-34.339844h50.820313v34.339844c0 14.03125-11.375 25.410156-25.410156 25.410156zm0 0" fill="#e8e1d5"/><path d="m205.179688 301.328125c-14.035157 0-25.414063-11.378906-25.414063-25.410156v-34.339844h50.824219v34.339844c0 14.03125-11.378906 25.410156-25.410156 25.410156zm0 0" fill="#89ceea"/><path d="m256 301.328125c-14.035156 0-25.410156-11.378906-25.410156-25.410156v-34.339844h50.820312v34.339844c0 14.03125-11.375 25.410156-25.410156 25.410156zm0 0" fill="#e8e1d5"/><path d="m306.820312 301.328125c-14.03125 0-25.410156-11.378906-25.410156-25.410156v-34.339844h50.824219v34.339844c0 14.03125-11.378906 25.410156-25.414063 25.410156zm0 0" fill="#89ceea"/><path d="m357.644531 301.328125c-14.035156 0-25.410156-11.378906-25.410156-25.410156v-34.339844h50.820313v34.339844c0 14.03125-11.375 25.410156-25.410157 25.410156zm0 0" fill="#e8e1d5"/><path d="m408.46875 301.328125c-14.035156 0-25.414062-11.378906-25.414062-25.410156v-34.339844h50.824218v34.339844c0 14.03125-11.378906 25.410156-25.410156 25.410156zm0 0" fill="#89ceea"/><path d="m459.289062 301.328125c-14.035156 0-25.410156-11.378906-25.410156-25.410156v-34.339844h50.820313v34.339844c0 14.03125-11.375 25.410156-25.410157 25.410156zm0 0" fill="#e8e1d5"/><path d="m27.300781 181.828125h50.820313v59.75h-50.820313zm0 0" fill="#89ceea"/><path d="m78.121094 181.828125h50.824218v59.75h-50.824218zm0 0" fill="#e8e1d5"/><path d="m128.945312 181.828125h50.820313v59.75h-50.820313zm0 0" fill="#89ceea"/><path d="m179.765625 181.828125h50.824219v59.75h-50.824219zm0 0" fill="#e8e1d5"/><path d="m230.589844 181.828125h50.820312v59.75h-50.820312zm0 0" fill="#89ceea"/><path d="m281.410156 181.828125h50.824219v59.75h-50.824219zm0 0" fill="#e8e1d5"/><path d="m332.234375 181.828125h50.820313v59.75h-50.820313zm0 0" fill="#89ceea"/><path d="m383.054688 181.828125h50.824218v59.75h-50.824218zm0 0" fill="#e8e1d5"/><path d="m433.878906 181.828125h50.820313v59.75h-50.820313zm0 0" fill="#89ceea"/><path d="m340.988281 51.417969c0-16.449219-13.347656-29.785157-29.820312-29.785157-16.46875 0-29.820313 13.335938-29.820313 29.785157 0 16.453125 13.351563 29.785156 29.820313 29.785156 16.472656 0 29.820312-13.332031 29.820312-29.785156zm0 0" fill="#b0693c"/><path d="m230.652344 51.417969c0-16.449219-13.351563-29.785157-29.820313-29.785157-16.472656 0-29.820312 13.335938-29.820312 29.785157 0 16.453125 13.347656 29.785156 29.820312 29.785156 16.46875 0 29.820313-13.332031 29.820313-29.785156zm0 0" fill="#b0693c"/><path d="m324.589844 103.542969c0-30.429688-30.710938-55.101563-68.589844-55.101563s-68.589844 24.671875-68.589844 55.101563c0 30.433593 30.710938 55.105469 68.589844 55.105469s68.589844-24.671876 68.589844-55.105469zm0 0" fill="#ffd659"/><path d="m244.34375 80.863281c0 4.269531-3.460938 7.726563-7.726562 7.726563-4.269532 0-7.726563-3.457032-7.726563-7.726563 0-4.265625 3.457031-7.722656 7.726563-7.722656 4.265624 0 7.726562 3.457031 7.726562 7.722656zm0 0" fill="#47251c"/><path d="m283.109375 80.863281c0 4.269531-3.457031 7.726563-7.726563 7.726563-4.265624 0-7.726562-3.457032-7.726562-7.726563 0-4.265625 3.460938-7.722656 7.726562-7.722656 4.269532 0 7.726563 3.457031 7.726563 7.722656zm0 0" fill="#47251c"/><path d="m496.546875 512h-481.09375c-8.535156 0-15.453125-6.917969-15.453125-15.453125s6.917969-15.453125 15.453125-15.453125h481.09375c8.535156 0 15.453125 6.917969 15.453125 15.453125s-6.917969 15.453125-15.453125 15.453125zm0 0" fill="#b0693c"/><path d="m496.546875 481.09375h-30.90625c8.535156 0 15.453125 6.917969 15.453125 15.453125s-6.917969 15.453125-15.453125 15.453125h30.90625c8.535156 0 15.453125-6.917969 15.453125-15.453125s-6.917969-15.453125-15.453125-15.453125zm0 0" fill="#9c5d35"/></svg>