<svg viewBox="0 0 512 512" xmlns="http://www.w3.org/2000/svg"><path d="m241 0h30v75h-30zm0 0" fill="#78b9eb"/><path d="m256 0h15v75h-15zm0 0" fill="#5aaae7"/><path d="m211 60h90v106h-90zm0 0" fill="#d3d3d8"/><path d="m256 60h45v106h-45zm0 0" fill="#babac0"/><path d="m151 151h210v76h-210zm0 0" fill="#e2e2e7"/><path d="m256 151h105v76h-105zm0 0" fill="#d3d3d8"/><path d="m121 212h270v285h-270zm0 0" fill="#ececf1"/><path d="m256 212h135v285h-135zm0 0" fill="#e2e2e7"/><path d="m452 437h30v60h-30zm0 0" fill="#a8d32a"/><path d="m467 437h15v60h-15zm0 0" fill="#93bf00"/><path d="m181 272h60v30h-60zm0 0" fill="#78b9eb"/><path d="m271 272h60v30h-60zm0 0" fill="#5aaae7"/><path d="m181 332h60v30h-60zm0 0" fill="#78b9eb"/><path d="m271 332h60v30h-60zm0 0" fill="#5aaae7"/><path d="m181 392h60v30h-60zm0 0" fill="#78b9eb"/><path d="m271 392h60v30h-60zm0 0" fill="#5aaae7"/><path d="m241 452h30v45h-30zm0 0" fill="#5a5a5a"/><path d="m467 332c-30.902344 0-45 57.597656-45 75 0 24.898438 20.097656 45 45 45s45-20.101562 45-45c0-17.402344-14.097656-75-45-75zm0 0" fill="#b9dd39"/><path d="m512 407c0 24.898438-20.097656 45-45 45v-120c30.902344 0 45 57.597656 45 75zm0 0" fill="#a8d32a"/><path d="m30 437h30v60h-30zm0 0" fill="#a8d32a"/><path d="m45 437h15v60h-15zm0 0" fill="#93bf00"/><path d="m45 332c-30.902344 0-45 57.597656-45 75 0 24.898438 20.097656 45 45 45s45-20.101562 45-45c0-17.402344-14.097656-75-45-75zm0 0" fill="#b9dd39"/><path d="m90 407c0 24.898438-20.097656 45-45 45v-120c30.902344 0 45 57.597656 45 75zm0 0" fill="#a8d32a"/><path d="m256 452h15v45h-15zm0 0" fill="#444"/><path d="m0 482h512v30h-512zm0 0" fill="#6e6e6e"/><path d="m256 482h256v30h-256zm0 0" fill="#5a5a5a"/></svg>