<svg height="512pt" viewBox="0 0 512 512" width="512pt" xmlns="http://www.w3.org/2000/svg"><path d="m451 182v120l-195 30-195-30v-120l195-120zm0 0" fill="#ff7816"/><path d="m451 302-195 30v-270l195 120zm0 0" fill="#ff4b00"/><path d="m61 302h390v195h-390zm0 0" fill="#c6715a"/><path d="m256 302h195v195h-195zm0 0" fill="#b35f49"/><path d="m0 482h512v30h-512zm0 0" fill="#fdbf00"/><path d="m196 182v90h120v-90zm0 0" fill="#fdbf00"/><path d="m512 257.300781-53.199219 29.699219-97.199219-151.800781-105.601562-63.300781-105.300781 63.300781-97.199219 151.800781-53.5-29.402344 106-165.597656 150-92 150 92zm0 0" fill="#5a5a5a"/><path d="m241 460.789062-53.789062-53.789062 53.789062-53.789062zm-21.210938-128.789062-53.789062 53.789062-53.789062-53.789062zm-128.789062 21.210938 53.789062 53.789062-53.789062 53.789062zm75 75 53.789062 53.789062h-107.578124zm0 0" fill="#99503d"/><path d="m399.789062 332-53.789062 53.789062-53.789062-53.789062zm21.210938 21.210938v107.578124l-53.789062-53.789062zm-150 0 53.789062 53.789062-53.789062 53.789062zm21.210938 128.789062 53.789062-53.789062 53.789062 53.789062zm0 0" fill="#804231"/><path d="m256 182h60v90h-60zm0 0" fill="#ff9f00"/><path d="m512 257.300781-53.199219 29.699219-97.199219-151.800781-105.601562-63.300781v-71.898438l150 92zm0 0" fill="#444"/><path d="m256 482h256v30h-256zm0 0" fill="#ff9f00"/></svg>