<?xml version="1.0" encoding="iso-8859-1"?>
<!-- Generator: Adobe Illustrator 19.0.0, SVG Export Plug-In . SVG Version: 6.00 Build 0)  -->
<svg version="1.1" id="Layer_1" xmlns="http://www.w3.org/2000/svg" xmlns:xlink="http://www.w3.org/1999/xlink" x="0px" y="0px"
	 viewBox="0 0 454.582 454.582" style="enable-background:new 0 0 454.582 454.582;" xml:space="preserve">
<g>
	<rect x="226.291" style="fill:#F93030;" width="32.667" height="21.333"/>
	<rect x="226.291" style="fill:#2D4151;" width="4" height="48"/>
	<path style="fill:#CCCCCC;" d="M357.424,166.553c0,71.88-58.26,130.14-130.13,130.14c-71.88,0-130.14-58.26-130.14-130.14
		c0-71.87,58.26-130.13,130.14-130.13c51.74,0,96.42,30.19,117.39,73.91C352.854,127.353,357.424,146.413,357.424,166.553z"/>
	<path style="fill:#B3B3B3;" d="M344.684,110.333h-117.39v-73.91C279.034,36.423,323.714,66.613,344.684,110.333z"/>
	<g>
		<rect x="98.093" y="95.601" style="fill:#B3B3B3;" width="258.396" height="31.733"/>
		<g>
			<rect x="126.186" y="100.134" style="fill:#808080;" width="7.707" height="22.666"/>
			<rect x="153.972" y="100.134" style="fill:#808080;" width="7.707" height="22.666"/>
			<rect x="181.758" y="100.134" style="fill:#808080;" width="7.707" height="22.666"/>
			<rect x="209.544" y="100.134" style="fill:#808080;" width="7.707" height="22.666"/>
			<rect x="237.331" y="100.134" style="fill:#808080;" width="7.707" height="22.666"/>
			<rect x="265.117" y="100.134" style="fill:#808080;" width="7.707" height="22.666"/>
			<rect x="292.903" y="100.134" style="fill:#808080;" width="7.707" height="22.666"/>
			<rect x="320.689" y="100.134" style="fill:#808080;" width="7.707" height="22.666"/>
		</g>
	</g>
	<rect x="87.19" y="87.333" style="fill:#808080;" width="280.201" height="8.267"/>
	<polygon style="fill:#CCCCCC;" points="395.294,448.355 395.294,127.248 59.288,127.248 59.288,448.355 13.383,448.355 
		13.383,454.582 441.199,454.582 441.199,448.355 	"/>
	<g>
		<g>
			<rect x="158.286" y="314.702" style="fill:#B3B3B3;" width="71" height="133"/>
			<rect x="163.286" y="319.702" style="fill:#2D4151;" width="61" height="123"/>
			<path style="opacity:0.2;fill:#FCFAFA;enable-background:new    ;" d="M220.719,324.061V438.97h-48
				C172.719,438.969,214.839,394.495,220.719,324.061z"/>
			<rect x="160.786" y="349.202" style="fill:#B3B3B3;" width="66" height="5"/>
		</g>
		<g>
			<rect x="225.296" y="314.702" style="fill:#B3B3B3;" width="71" height="133"/>
			<rect x="230.296" y="319.702" style="fill:#2D4151;" width="61" height="123"/>
			<path style="opacity:0.2;fill:#FCFAFA;enable-background:new    ;" d="M287.729,324.061V438.97h-48
				C239.729,438.969,281.849,394.495,287.729,324.061z"/>
			<rect x="227.796" y="349.202" style="fill:#B3B3B3;" width="66" height="5"/>
		</g>
	</g>
	<g>
		<rect x="311.189" y="287.368" style="fill:#B3B3B3;" width="71" height="133"/>
		<rect x="316.189" y="292.368" style="fill:#2D4151;" width="61" height="123"/>
		<path style="opacity:0.2;fill:#FCFAFA;enable-background:new    ;" d="M373.623,296.728v114.909h-48
			C325.622,411.637,367.743,367.162,373.623,296.728z"/>
		<rect x="313.689" y="321.868" style="fill:#B3B3B3;" width="66" height="5"/>
	</g>
	<g>
		<rect x="72.392" y="287.368" style="fill:#B3B3B3;" width="71" height="133"/>
		<rect x="77.392" y="292.368" style="fill:#2D4151;" width="61" height="123"/>
		<path style="opacity:0.2;fill:#FCFAFA;enable-background:new    ;" d="M134.826,296.728v114.909h-48
			C86.825,411.637,128.946,367.162,134.826,296.728z"/>
		<rect x="74.892" y="321.868" style="fill:#B3B3B3;" width="66" height="5"/>
	</g>
	<g>
		<g>
			<rect x="311.189" y="146.961" style="fill:#B3B3B3;" width="71" height="133"/>
			<rect x="316.189" y="151.961" style="fill:#2D4151;" width="61" height="123"/>
			<path style="opacity:0.2;fill:#FCFAFA;enable-background:new    ;" d="M373.623,156.321V271.23h-48
				C325.622,271.23,367.743,226.755,373.623,156.321z"/>
			<rect x="313.689" y="181.461" style="fill:#B3B3B3;" width="66" height="5"/>
		</g>
		<g>
			<rect x="72.392" y="146.961" style="fill:#B3B3B3;" width="71" height="133"/>
			<rect x="77.392" y="151.961" style="fill:#2D4151;" width="61" height="123"/>
			<path style="opacity:0.2;fill:#FCFAFA;enable-background:new    ;" d="M134.826,156.321V271.23h-48
				C86.825,271.23,128.946,226.755,134.826,156.321z"/>
			<rect x="74.892" y="181.461" style="fill:#B3B3B3;" width="66" height="5"/>
		</g>
		<g>
			<rect x="151.991" y="146.961" style="fill:#B3B3B3;" width="71" height="133"/>
			<rect x="156.991" y="151.961" style="fill:#2D4151;" width="61" height="123"/>
			<path style="opacity:0.2;fill:#FCFAFA;enable-background:new    ;" d="M214.425,156.321V271.23h-48.001
				C166.424,271.23,208.545,226.755,214.425,156.321z"/>
			<rect x="154.491" y="181.461" style="fill:#B3B3B3;" width="66" height="5"/>
		</g>
		<g>
			<rect x="231.59" y="146.961" style="fill:#B3B3B3;" width="71" height="133"/>
			<rect x="236.59" y="151.961" style="fill:#2D4151;" width="61" height="123"/>
			<path style="opacity:0.2;fill:#FCFAFA;enable-background:new    ;" d="M294.024,156.321V271.23h-48.001
				C246.023,271.23,288.144,226.755,294.024,156.321z"/>
			<rect x="234.09" y="181.461" style="fill:#B3B3B3;" width="66" height="5"/>
		</g>
	</g>
	
		<rect x="147.958" y="286.582" style="fill:#FFFFFF;stroke:#595959;stroke-width:2;stroke-miterlimit:10;" width="158.667" height="21.333"/>
	<g>
		<path style="fill:#2D4151;" d="M186.482,290.773v1.391h-6.288v4.193h5.916v1.391h-5.916v4.604h6.563v1.391h-8.13v-12.969
			L186.482,290.773L186.482,290.773z"/>
		<path style="fill:#2D4151;" d="M195.063,290.773l2.938,10.834h0.04l3.114-10.834h2.194v12.969h-1.567v-10.521h-0.059
			l-3.021,10.521h-1.364l-3.06-10.521h-0.039v10.521h-1.567v-12.969H195.063z"/>
		<path style="fill:#2D4151;" d="M209.62,290.773h4.761c0.404,0,0.796,0.091,1.175,0.274c0.379,0.183,0.712,0.421,0.999,0.715
			s0.517,0.627,0.687,0.999c0.169,0.373,0.254,0.748,0.254,1.126c0,0.313-0.029,0.621-0.088,0.921
			c-0.059,0.301-0.153,0.584-0.284,0.852c-0.131,0.268-0.291,0.503-0.479,0.706c-0.189,0.203-0.415,0.362-0.676,0.48
			c0.365,0.091,0.679,0.248,0.94,0.47c0.261,0.222,0.479,0.48,0.656,0.774c0.176,0.293,0.307,0.614,0.392,0.96
			s0.127,0.689,0.127,1.028c0,0.418-0.088,0.846-0.265,1.283c-0.176,0.438-0.414,0.833-0.715,1.186s-0.649,0.64-1.048,0.862
			s-0.82,0.333-1.264,0.333h-5.172V290.773z M211.187,296.259h2.887c0.248,0,0.488-0.068,0.723-0.206
			c0.233-0.137,0.438-0.31,0.614-0.519s0.315-0.441,0.42-0.696c0.104-0.254,0.156-0.5,0.156-0.734c0-0.196-0.039-0.408-0.117-0.637
			s-0.199-0.438-0.361-0.627s-0.364-0.35-0.604-0.48c-0.241-0.13-0.518-0.196-0.83-0.196h-2.887v4.095H211.187z M211.187,302.352
			h3.045c0.272,0,0.546-0.065,0.819-0.196c0.273-0.13,0.518-0.304,0.732-0.519c0.215-0.216,0.39-0.463,0.526-0.745
			c0.137-0.281,0.205-0.571,0.205-0.872c0-0.274-0.052-0.559-0.156-0.853s-0.253-0.558-0.448-0.793
			c-0.195-0.235-0.433-0.427-0.713-0.578c-0.279-0.15-0.596-0.226-0.946-0.226h-3.064V302.352z"/>
		<path style="fill:#2D4151;" d="M229.113,290.773l4.192,12.969h-1.725l-1.194-4.095h-4.408l-1.195,4.095h-1.724l4.173-12.969
			H229.113z M226.389,298.257h3.585l-1.782-6.093h-0.02L226.389,298.257z"/>
		<path style="fill:#2D4151;" d="M239.77,299.55c0,0.392,0.065,0.777,0.196,1.156s0.32,0.712,0.568,0.999
			c0.248,0.288,0.545,0.519,0.892,0.696c0.346,0.176,0.728,0.264,1.146,0.264c0.353,0,0.692-0.045,1.019-0.137
			c0.326-0.091,0.61-0.231,0.853-0.421c0.241-0.189,0.434-0.421,0.578-0.696c0.144-0.274,0.215-0.601,0.215-0.979
			c0-0.417-0.101-0.78-0.303-1.087c-0.203-0.307-0.458-0.568-0.765-0.783c-0.307-0.216-0.644-0.389-1.009-0.52
			c-0.366-0.13-0.712-0.235-1.038-0.313c-0.458-0.104-0.901-0.264-1.332-0.48c-0.432-0.215-0.813-0.483-1.146-0.803
			s-0.604-0.698-0.813-1.136s-0.313-0.924-0.313-1.459c0-0.483,0.111-0.934,0.334-1.352s0.518-0.78,0.884-1.087
			c0.367-0.307,0.786-0.545,1.257-0.715c0.472-0.169,0.956-0.254,1.454-0.254c0.798,0,1.456,0.14,1.974,0.421
			c0.517,0.281,0.926,0.627,1.228,1.039c0.301,0.411,0.514,0.852,0.638,1.322s0.187,0.895,0.187,1.273h-1.567
			c0-0.378-0.068-0.731-0.205-1.058c-0.136-0.326-0.318-0.607-0.546-0.842c-0.228-0.235-0.487-0.421-0.78-0.558
			c-0.293-0.137-0.602-0.206-0.927-0.206c-0.3,0-0.589,0.046-0.868,0.137c-0.28,0.092-0.53,0.226-0.751,0.402
			c-0.222,0.176-0.4,0.389-0.537,0.637s-0.205,0.522-0.205,0.823c0,0.392,0.089,0.731,0.265,1.019
			c0.177,0.288,0.401,0.536,0.676,0.745s0.578,0.375,0.911,0.5s0.649,0.225,0.95,0.304c0.51,0.118,0.999,0.288,1.47,0.509
			c0.47,0.222,0.888,0.5,1.254,0.833c0.365,0.333,0.656,0.722,0.871,1.166c0.216,0.444,0.323,0.947,0.323,1.508
			c0,0.588-0.104,1.107-0.314,1.558c-0.209,0.451-0.503,0.83-0.883,1.136c-0.38,0.307-0.828,0.542-1.345,0.705
			c-0.518,0.164-1.077,0.245-1.68,0.245c-0.563,0-1.109-0.118-1.64-0.353c-0.53-0.235-0.998-0.555-1.404-0.96
			c-0.405-0.405-0.729-0.882-0.972-1.43c-0.242-0.549-0.363-1.136-0.363-1.763h1.563V299.55z"/>
		<path style="fill:#2D4151;" d="M254.071,299.55c0,0.392,0.065,0.777,0.196,1.156s0.32,0.712,0.568,0.999
			c0.248,0.288,0.545,0.519,0.892,0.696c0.346,0.176,0.728,0.264,1.146,0.264c0.353,0,0.692-0.045,1.019-0.137
			c0.326-0.091,0.61-0.231,0.853-0.421c0.241-0.189,0.434-0.421,0.578-0.696c0.144-0.274,0.215-0.601,0.215-0.979
			c0-0.417-0.101-0.78-0.303-1.087c-0.203-0.307-0.458-0.568-0.765-0.783c-0.307-0.216-0.644-0.389-1.009-0.52
			c-0.366-0.13-0.712-0.235-1.038-0.313c-0.458-0.104-0.901-0.264-1.332-0.48c-0.432-0.215-0.813-0.483-1.146-0.803
			s-0.604-0.698-0.813-1.136s-0.313-0.924-0.313-1.459c0-0.483,0.111-0.934,0.334-1.352s0.518-0.78,0.884-1.087
			c0.367-0.307,0.786-0.545,1.257-0.715c0.472-0.169,0.956-0.254,1.454-0.254c0.798,0,1.456,0.14,1.974,0.421
			c0.517,0.281,0.926,0.627,1.228,1.039c0.301,0.411,0.514,0.852,0.638,1.322s0.187,0.895,0.187,1.273h-1.567
			c0-0.378-0.068-0.731-0.205-1.058c-0.136-0.326-0.318-0.607-0.546-0.842c-0.228-0.235-0.487-0.421-0.78-0.558
			c-0.293-0.137-0.602-0.206-0.927-0.206c-0.3,0-0.589,0.046-0.868,0.137c-0.28,0.092-0.53,0.226-0.751,0.402
			c-0.222,0.176-0.4,0.389-0.537,0.637s-0.205,0.522-0.205,0.823c0,0.392,0.089,0.731,0.265,1.019
			c0.177,0.288,0.401,0.536,0.676,0.745s0.578,0.375,0.911,0.5s0.649,0.225,0.95,0.304c0.51,0.118,0.999,0.288,1.47,0.509
			c0.47,0.222,0.888,0.5,1.254,0.833c0.365,0.333,0.656,0.722,0.871,1.166c0.216,0.444,0.323,0.947,0.323,1.508
			c0,0.588-0.104,1.107-0.314,1.558c-0.209,0.451-0.503,0.83-0.883,1.136c-0.38,0.307-0.828,0.542-1.345,0.705
			c-0.518,0.164-1.077,0.245-1.68,0.245c-0.563,0-1.109-0.118-1.64-0.353c-0.53-0.235-0.998-0.555-1.404-0.96
			c-0.405-0.405-0.729-0.882-0.972-1.43c-0.242-0.549-0.363-1.136-0.363-1.763h1.563V299.55z"/>
		<path style="fill:#2D4151;" d="M267.845,290.773l3.124,6.132h0.04l3.124-6.132h1.822l-4.192,7.601v5.368h-1.567v-5.368
			l-4.173-7.601H267.845z"/>
	</g>
	<g>
		<path style="fill:#B51D1D;" d="M347.294,358.582L347.294,358.582c-4.735-10.331-5.655-22.006-2.597-32.951l7.93-28.382
			L347.294,358.582z"/>
		<path style="fill:#B51D1D;" d="M376.13,370.582l-2.401,2.208c-6.162,5.668-15.829,4.962-21.103-1.541l0,0v-22.667L376.13,370.582z
			"/>
		<rect x="347.294" y="279.961" style="fill:#808080;" width="5.333" height="168.394"/>
		<path style="fill:#F93030;" d="M352.627,285.915c0,0,20.836,24,13.503,46s10,38.667,10,38.667s-12.748-1.017-23.503-15.333
			C340.044,338.498,352.627,285.915,352.627,285.915z"/>
		<polygon style="fill:#F93030;" points="347.294,327.749 352.627,335.748 352.627,285.915 347.294,285.915 		"/>
	</g>
	<g>
		<rect x="214.458" y="381.248" style="fill:#CCCCCC;" width="3.333" height="29.667"/>
		<rect x="236.791" y="381.248" style="fill:#CCCCCC;" width="3.333" height="29.667"/>
	</g>
</g>
<g>
</g>
<g>
</g>
<g>
</g>
<g>
</g>
<g>
</g>
<g>
</g>
<g>
</g>
<g>
</g>
<g>
</g>
<g>
</g>
<g>
</g>
<g>
</g>
<g>
</g>
<g>
</g>
<g>
</g>
</svg>
