<?xml version="1.0" encoding="iso-8859-1"?>
<!-- Generator: Adobe Illustrator 19.0.0, SVG Export Plug-In . SVG Version: 6.00 Build 0)  -->
<svg version="1.1" id="Layer_1" xmlns="http://www.w3.org/2000/svg" xmlns:xlink="http://www.w3.org/1999/xlink" x="0px" y="0px"
	 viewBox="0 0 512 512" style="enable-background:new 0 0 512 512;" xml:space="preserve">
<polygon style="fill:#FF7058;" points="145.067,33.067 86.4,33.067 86.4,33.067 81.067,33.067 81.067,120.533 91.733,120.533 
	91.733,75.733 145.067,75.733 "/>
<polygon style="fill:#FFD15C;" points="91.733,120.533 81.067,120.533 18.133,259.2 154.667,259.2 "/>
<polygon style="fill:#FF7058;" points="484.267,33.067 425.6,33.067 425.6,33.067 420.267,33.067 420.267,120.533 430.933,120.533 
	430.933,75.733 484.267,75.733 "/>
<g>
	<polygon style="fill:#FFD15C;" points="430.933,120.533 420.267,120.533 357.333,259.2 493.867,259.2 	"/>
	<polygon style="fill:#FFD15C;" points="256,0 187.733,149.333 324.267,149.333 	"/>
</g>
<rect x="196.267" y="182.4" style="fill:#4CDBC4;" width="119.467" height="158.933"/>
<polygon style="fill:#3DC9AE;" points="342.4,152.533 169.6,152.533 196.267,182.4 315.733,182.4 "/>
<polygon style="fill:#4CDBC4;" points="320,122.667 320,137.6 299.733,137.6 299.733,122.667 266.667,122.667 266.667,137.6 
	245.333,137.6 245.333,122.667 212.267,122.667 212.267,137.6 192,137.6 192,122.667 169.6,122.667 169.6,152.533 342.4,152.533 
	342.4,122.667 "/>
<rect x="196.267" y="324.267" style="opacity:0.1;fill:#231F20;enable-background:new    ;" width="119.467" height="16"/>
<polygon style="fill:#4CDBC4;" points="395.733,318.933 395.733,340.267 371.2,340.267 371.2,318.933 331.733,318.933 
	331.733,340.267 180.267,340.267 180.267,318.933 140.8,318.933 140.8,340.267 116.267,340.267 116.267,318.933 106.667,318.933 
	106.667,512 405.333,512 405.333,318.933 "/>
<g>
	<rect x="106.667" y="318.933" style="opacity:0.1;fill:#231F20;enable-background:new    ;" width="55.467" height="193.067"/>
	<rect x="349.867" y="318.933" style="opacity:0.1;fill:#231F20;enable-background:new    ;" width="55.467" height="193.067"/>
</g>
<rect x="26.667" y="289.067" style="fill:#4CDBC4;" width="119.467" height="222.933"/>
<polygon style="fill:#3DC9AE;" points="172.8,260.267 0,260.267 26.667,289.067 146.133,289.067 "/>
<g>
	<polygon style="fill:#4CDBC4;" points="150.4,230.4 150.4,245.333 130.133,245.333 130.133,230.4 97.067,230.4 97.067,245.333 
		76.8,245.333 76.8,230.4 42.667,230.4 42.667,245.333 22.4,245.333 22.4,230.4 0,230.4 0,260.267 172.8,260.267 172.8,230.4 	"/>
	<rect x="365.867" y="289.067" style="fill:#4CDBC4;" width="119.467" height="222.933"/>
</g>
<polygon style="fill:#3DC9AE;" points="512,260.267 339.2,260.267 365.867,289.067 485.333,289.067 "/>
<polygon style="fill:#4CDBC4;" points="489.6,230.4 489.6,245.333 469.333,245.333 469.333,230.4 435.2,230.4 435.2,245.333 
	414.933,245.333 414.933,230.4 381.867,230.4 381.867,245.333 361.6,245.333 361.6,230.4 339.2,230.4 339.2,260.267 512,260.267 
	512,230.4 "/>
<path style="fill:#FFFFFF;" d="M300.8,512h-89.6v-54.4c0-24.533,20.267-44.8,44.8-44.8l0,0c24.533,0,44.8,20.267,44.8,44.8V512z"/>
<path style="fill:#40596B;" d="M217.6,457.6V512H256v-92.8C234.667,419.2,217.6,437.333,217.6,457.6z"/>
<path style="fill:#334A5E;" d="M294.4,457.6c0-21.333-17.067-38.4-38.4-38.4V512h38.4V457.6z"/>
<path style="fill:#40596B;" d="M86.4,370.133c-13.867,0-24.533,10.667-24.533,24.533v29.867h49.067v-29.867
	C110.933,380.8,100.267,370.133,86.4,370.133z"/>
<rect x="54.4" y="420.267" style="fill:#334A5E;" width="65.067" height="11.733"/>
<path style="fill:#40596B;" d="M425.6,370.133c-13.867,0-24.533,10.667-24.533,24.533v29.867h49.067v-29.867
	C450.133,380.8,438.4,370.133,425.6,370.133z"/>
<rect x="392.533" y="420.267" style="fill:#334A5E;" width="65.067" height="11.733"/>
<path style="fill:#40596B;" d="M256,209.067c-13.867,0-24.533,10.667-24.533,24.533v29.867h49.067V233.6
	C280.533,219.733,269.867,209.067,256,209.067z"/>
<rect x="222.933" y="258.133" style="fill:#334A5E;" width="65.067" height="11.733"/>
<g>
</g>
<g>
</g>
<g>
</g>
<g>
</g>
<g>
</g>
<g>
</g>
<g>
</g>
<g>
</g>
<g>
</g>
<g>
</g>
<g>
</g>
<g>
</g>
<g>
</g>
<g>
</g>
<g>
</g>
</svg>
