<?xml version="1.0" encoding="iso-8859-1"?>
<!-- Generator: Adobe Illustrator 19.0.0, SVG Export Plug-In . SVG Version: 6.00 Build 0)  -->
<svg version="1.1" id="Capa_1" xmlns="http://www.w3.org/2000/svg" xmlns:xlink="http://www.w3.org/1999/xlink" x="0px" y="0px"
	 viewBox="0 0 480 480" style="enable-background:new 0 0 480 480;" xml:space="preserve">
<g>
	<polygon style="fill:#695A69;" points="109.091,274.286 109.091,258.701 0,280.519 115.325,280.519 	"/>
	<polygon style="fill:#695A69;" points="364.675,280.519 480,280.519 370.909,258.701 370.909,274.286 	"/>
	<path style="fill:#C8B2A8;" d="M177.662,218.182v-21.818h31.169v7.718L240,187.013l31.169,17.069v-7.718h31.169v21.818v2.968
		l34.286,18.776V130.909H143.377v109.017l34.286-18.775V218.182z M271.169,162.078v-3.117v-21.818h31.169v21.818v3.117v21.818
		h-31.169V162.078z M224.416,162.078v-3.117v-21.818h31.169v21.818v3.117v21.818h-31.169V162.078z M177.662,162.078v-3.117v-21.818
		h31.169v21.818v3.117v21.818h-31.169V162.078z"/>
	<polygon style="fill:#FFFFFF;" points="177.662,196.364 177.662,218.182 177.662,221.15 183.083,218.182 180.779,218.182 
		180.779,199.481 187.013,199.481 187.013,205.714 187.013,216.03 190.13,214.323 190.13,208.831 190.13,199.481 196.364,199.481 
		196.364,210.909 199.48,209.202 199.48,199.481 205.714,199.481 205.714,205.789 208.831,204.082 208.831,196.364 	"/>
	<polygon style="fill:#6EB1E2;" points="190.13,199.481 190.13,208.831 193.678,212.38 196.364,210.909 196.364,199.481 	"/>
	<polygon style="fill:#6EB1E2;" points="199.48,199.481 199.48,209.202 205.714,205.789 205.714,199.481 	"/>
	<polygon style="fill:#6EB1E2;" points="187.013,199.481 180.779,199.481 187.013,205.714 	"/>
	<polygon style="fill:#80D7F0;" points="190.13,214.323 193.678,212.38 190.13,208.831 	"/>
	<polygon style="fill:#80D7F0;" points="180.779,199.481 180.779,218.182 183.083,218.182 187.013,216.03 187.013,205.714 	"/>
	<polygon style="fill:#FFFFFF;" points="302.338,196.364 271.169,196.364 271.169,204.082 274.286,205.788 274.286,199.481 
		280.519,199.481 280.519,205.714 280.519,209.202 283.636,210.909 283.636,208.831 283.636,199.481 289.87,199.481 289.87,214.323 
		292.987,216.03 292.987,199.481 299.221,199.481 299.221,218.182 296.917,218.182 302.338,221.15 302.338,218.182 	"/>
	<polygon style="fill:#6EB1E2;" points="283.636,199.481 283.636,208.831 288.229,213.424 289.87,214.323 289.87,199.481 	"/>
	<polygon style="fill:#6EB1E2;" points="280.519,199.481 274.286,199.481 280.519,205.714 	"/>
	<polygon style="fill:#6EB1E2;" points="299.221,199.481 292.987,199.481 292.987,216.03 296.917,218.182 299.221,218.182 	"/>
	<polygon style="fill:#80D7F0;" points="274.286,199.481 274.286,205.788 280.519,209.202 280.519,205.714 	"/>
	<polygon style="fill:#80D7F0;" points="283.636,210.909 288.229,213.424 283.636,208.831 	"/>
	<rect x="143.377" y="121.558" style="fill:#A08A8A;" width="193.247" height="9.351"/>
	<path style="fill:#C8B2A8;" d="M364.675,392.727h-15.584v18.701h15.584l10.686,12.468H480V289.87H364.675V392.727z M430.13,324.156
		v-3.117v-21.818h31.169v21.818v3.117v21.818H430.13V324.156z M430.13,386.494v-3.117v-21.818h31.169v21.818v3.117v21.818H430.13
		V386.494z M383.377,324.156v-3.117v-21.818h31.169v21.818v3.117v21.818h-31.169V324.156z M383.377,386.494v-3.117v-21.818h31.169
		v21.818v3.117v21.818h-31.169V386.494z"/>
	<path style="fill:#C8B2A8;" d="M115.325,411.429h15.584v-18.701h-15.584V289.87H0v134.026h102.857L115.325,411.429z M49.87,383.377
		v3.117v21.818H18.701v-21.818v-3.117v-21.818H49.87V383.377z M49.87,321.039v3.117v21.818H18.701v-21.818v-3.117v-21.818H49.87
		V321.039z M96.623,383.377v3.117v21.818H65.455v-21.818v-3.117v-21.818h31.169V383.377z M96.623,324.156v21.818H65.455v-21.818
		v-3.117v-21.818h31.169v21.818V324.156z"/>
	<polygon style="fill:#DFD0C6;" points="240,60.968 163.507,102.857 316.493,102.857 	"/>
	<polygon style="fill:#DFD0C6;" points="350.644,261.818 240,201.228 129.356,261.818 	"/>
	<polygon style="fill:#A08A8A;" points="162.078,280.519 130.909,280.519 130.909,299.221 143.377,299.221 162.078,299.221 
		162.078,321.039 162.078,324.156 162.078,345.974 130.909,345.974 130.909,392.727 130.909,411.429 162.078,411.429 
		162.078,392.727 	"/>
	<polygon style="fill:#A08A8A;" points="208.831,361.558 208.831,280.519 177.662,280.519 177.662,299.221 208.831,299.221 
		208.831,321.039 208.831,324.156 208.831,345.974 177.662,345.974 177.662,392.727 177.662,411.429 196.364,411.429 
		196.364,361.558 	"/>
	<polygon style="fill:#A08A8A;" points="302.338,280.519 271.169,280.519 271.169,299.221 302.338,299.221 302.338,321.039 
		302.338,324.156 302.338,345.974 271.169,345.974 271.169,361.558 283.636,361.558 283.636,411.429 302.338,411.429 
		302.338,392.727 	"/>
	<polygon style="fill:#A08A8A;" points="317.922,280.519 317.922,299.221 336.623,299.221 349.091,299.221 349.091,321.039 
		349.091,324.156 349.091,345.974 317.922,345.974 317.922,392.727 317.922,411.429 349.091,411.429 349.091,392.727 
		349.091,280.519 	"/>
	<polygon style="fill:#A08A8A;" points="255.584,299.221 255.584,321.039 255.584,324.156 255.584,345.974 224.416,345.974 
		224.416,361.558 255.584,361.558 255.584,280.519 224.416,280.519 224.416,299.221 	"/>
	<path style="fill:#A08A8A;" d="M115.325,274.286h15.584h31.169h15.584h31.169h15.584h31.169h15.584h31.169h15.584h31.169h15.584
		h6.234v-15.584l-34.286-18.776l-34.286-18.776l-5.42-2.968l-3.93-2.152l-3.117-1.707l-1.641-0.898l-4.593-2.515l-3.117-1.707
		l-6.234-3.414l-3.117-1.707L240,187.013l-31.169,17.069l-3.117,1.707l-6.234,3.414l-3.117,1.707l-2.685,1.471l-3.548,1.943
		l-3.117,1.707l-3.93,2.152l-5.421,2.968l-34.286,18.775l-34.286,18.776v15.584H115.325z M240,201.228l110.644,60.591H129.356
		L240,201.228z"/>
	<polygon style="fill:#DFD0C6;" points="130.909,345.974 130.909,324.156 130.909,321.039 130.909,299.221 130.909,299.221 
		130.909,280.519 115.325,280.519 115.325,289.87 115.325,392.727 130.909,392.727 130.909,345.974 	"/>
	<polygon style="fill:#DFD0C6;" points="162.078,392.727 177.662,392.727 177.662,345.974 177.662,345.974 177.662,324.156 
		177.662,321.039 177.662,299.221 177.662,299.221 177.662,280.519 162.078,280.519 	"/>
	<polygon style="fill:#DFD0C6;" points="208.831,361.558 208.831,392.727 224.416,392.727 224.416,361.558 224.416,345.974 
		224.416,345.974 224.416,324.156 224.416,321.039 224.416,299.221 224.416,299.221 224.416,280.519 208.831,280.519 	"/>
	<polygon style="fill:#DFD0C6;" points="255.584,361.558 255.584,392.727 271.169,392.727 271.169,361.558 271.169,345.974 
		271.169,345.974 271.169,324.156 271.169,321.039 271.169,299.221 271.169,299.221 271.169,280.519 255.584,280.519 	"/>
	<polygon style="fill:#DFD0C6;" points="302.338,392.727 317.922,392.727 317.922,345.974 317.922,345.974 317.922,324.156 
		317.922,321.039 317.922,299.221 317.922,299.221 317.922,280.519 302.338,280.519 	"/>
	<polygon style="fill:#DFD0C6;" points="349.091,392.727 364.675,392.727 364.675,289.87 364.675,280.519 349.091,280.519 	"/>
	<polygon style="fill:#83727A;" points="364.675,274.286 349.091,274.286 317.922,274.286 302.338,274.286 271.169,274.286 
		255.584,274.286 224.416,274.286 208.831,274.286 177.662,274.286 162.078,274.286 130.909,274.286 115.325,274.286 
		109.091,274.286 115.325,280.519 130.909,280.519 162.078,280.519 177.662,280.519 208.831,280.519 224.416,280.519 
		255.584,280.519 271.169,280.519 302.338,280.519 317.922,280.519 349.091,280.519 364.675,280.519 370.909,274.286 	"/>
	<polygon style="fill:#695A69;" points="255.584,361.558 224.416,361.558 224.416,392.727 224.416,411.429 255.584,411.429 
		255.584,392.727 	"/>
	<polygon style="fill:#695A69;" points="208.831,361.558 196.364,361.558 196.364,411.429 208.831,411.429 208.831,392.727 	"/>
	<polygon style="fill:#695A69;" points="271.169,361.558 271.169,392.727 271.169,411.429 283.636,411.429 283.636,361.558 	"/>
	<path style="fill:#A08A8A;" d="M342.857,115.325v-12.468h-0.406L240,46.753l-102.451,56.104h-0.406v12.468H342.857z M240,60.968
		l76.493,41.889H163.507L240,60.968z"/>
	<polygon style="fill:#83727A;" points="342.857,115.325 137.143,115.325 143.377,121.558 336.623,121.558 	"/>
	<rect x="162.078" y="392.727" style="fill:#C8B2A8;" width="15.584" height="18.701"/>
	<rect x="208.831" y="392.727" style="fill:#C8B2A8;" width="15.584" height="18.701"/>
	<rect x="255.584" y="392.727" style="fill:#C8B2A8;" width="15.584" height="18.701"/>
	<rect x="302.338" y="392.727" style="fill:#C8B2A8;" width="15.584" height="18.701"/>
	<polygon style="fill:#A08A8A;" points="0,423.896 0,433.247 93.507,433.247 102.857,423.896 	"/>
	<rect y="280.519" style="fill:#A08A8A;" width="115.325" height="9.351"/>
	<rect x="364.675" y="280.519" style="fill:#A08A8A;" width="115.325" height="9.351"/>
	<polygon style="fill:#A08A8A;" points="383.377,433.247 480,433.247 480,423.896 375.362,423.896 	"/>
	<polygon style="fill:#83727A;" points="364.675,411.429 349.091,411.429 317.922,411.429 302.338,411.429 283.636,411.429 
		271.169,411.429 255.584,411.429 224.416,411.429 208.831,411.429 196.364,411.429 177.662,411.429 162.078,411.429 
		130.909,411.429 115.325,411.429 102.857,423.896 93.507,433.247 109.091,433.247 370.909,433.247 383.377,433.247 
		375.362,423.896 	"/>
	<path style="fill:#FFFFFF;" d="M18.701,321.039v3.117v21.818H49.87v-21.818v-3.117v-21.818H18.701V321.039z M31.169,342.857v-9.351
		v-9.351h6.234v15.584v3.117H31.169z M46.753,342.857h-6.234v-18.701h6.234V342.857z M46.753,302.338v18.701h-6.234v-18.701H46.753z
		 M37.403,302.338v15.584v3.117h-6.234v-9.351v-9.351H37.403z M21.818,302.338h6.234v6.234v12.468h-6.234V302.338z M21.818,324.156
		h6.234v6.234v12.468h-6.234V324.156z"/>
	<polygon style="fill:#6EB1E2;" points="37.403,317.922 37.403,302.338 31.169,302.338 31.169,311.688 	"/>
	<polygon style="fill:#6EB1E2;" points="28.052,302.338 21.818,302.338 28.052,308.571 	"/>
	<rect x="40.519" y="302.338" style="fill:#6EB1E2;" width="6.234" height="18.701"/>
	<rect x="40.519" y="324.156" style="fill:#6EB1E2;" width="6.234" height="18.701"/>
	<polygon style="fill:#6EB1E2;" points="37.403,324.156 31.169,324.156 31.169,333.506 37.403,339.74 	"/>
	<polygon style="fill:#6EB1E2;" points="28.052,324.156 21.818,324.156 28.052,330.39 	"/>
	<polygon style="fill:#80D7F0;" points="31.169,321.039 37.403,321.039 37.403,317.922 31.169,311.688 	"/>
	<polygon style="fill:#80D7F0;" points="28.052,308.571 21.818,302.338 21.818,321.039 28.052,321.039 	"/>
	<polygon style="fill:#80D7F0;" points="31.169,333.506 31.169,342.857 37.403,342.857 37.403,339.74 	"/>
	<polygon style="fill:#80D7F0;" points="28.052,330.39 21.818,324.156 21.818,342.857 28.052,342.857 	"/>
	<path style="fill:#FFFFFF;" d="M65.455,299.221v21.818v3.117v21.818h31.169v-21.818v-3.117v-21.818H65.455z M84.156,302.338v15.584
		v3.117h-6.234v-9.351v-9.351H84.156z M68.571,302.338h6.234v6.234v12.468h-6.234V302.338z M68.571,342.857v-18.701h6.234v6.234
		v12.468H68.571z M77.922,342.857v-9.351v-9.351h6.234v15.584v3.117H77.922z M93.506,342.857h-6.234v-18.701h6.234V342.857z
		 M93.506,321.039h-6.234v-18.701h6.234V321.039z"/>
	<polygon style="fill:#6EB1E2;" points="74.805,302.338 68.571,302.338 74.805,308.571 	"/>
	<rect x="87.273" y="302.338" style="fill:#6EB1E2;" width="6.234" height="18.701"/>
	<polygon style="fill:#6EB1E2;" points="84.156,317.922 84.156,302.338 77.922,302.338 77.922,311.688 	"/>
	<polygon style="fill:#6EB1E2;" points="84.156,324.156 77.922,324.156 77.922,333.506 84.156,339.74 	"/>
	<rect x="87.273" y="324.156" style="fill:#6EB1E2;" width="6.234" height="18.701"/>
	<polygon style="fill:#6EB1E2;" points="74.805,324.156 68.571,324.156 74.805,330.39 	"/>
	<polygon style="fill:#80D7F0;" points="77.922,321.039 84.156,321.039 84.156,317.922 77.922,311.688 	"/>
	<polygon style="fill:#80D7F0;" points="74.805,308.571 68.571,302.338 68.571,321.039 74.805,321.039 	"/>
	<polygon style="fill:#80D7F0;" points="77.922,333.506 77.922,342.857 84.156,342.857 84.156,339.74 	"/>
	<polygon style="fill:#80D7F0;" points="68.571,324.156 68.571,342.857 74.805,342.857 74.805,330.39 	"/>
	<path style="fill:#FFFFFF;" d="M18.701,383.377v3.117v21.818H49.87v-21.818v-3.117v-21.818H18.701V383.377z M31.169,405.195v-9.351
		v-9.351h6.234v15.584v3.117H31.169z M46.753,405.195h-6.234v-18.701h6.234V405.195z M46.753,364.675v18.701h-6.234v-18.701H46.753z
		 M37.403,364.675v15.584v3.117h-6.234v-9.351v-9.351H37.403z M21.818,364.675h6.234v6.234v12.468h-6.234V364.675z M21.818,386.494
		h6.234v6.234v12.468h-6.234V386.494z"/>
	<polygon style="fill:#6EB1E2;" points="37.403,380.26 37.403,364.675 31.169,364.675 31.169,374.026 	"/>
	<rect x="40.519" y="364.675" style="fill:#6EB1E2;" width="6.234" height="18.701"/>
	<polygon style="fill:#6EB1E2;" points="28.052,364.675 21.818,364.675 28.052,370.909 	"/>
	<rect x="40.519" y="386.494" style="fill:#6EB1E2;" width="6.234" height="18.701"/>
	<polygon style="fill:#6EB1E2;" points="28.052,386.494 21.818,386.494 28.052,392.727 	"/>
	<polygon style="fill:#6EB1E2;" points="37.403,386.494 31.169,386.494 31.169,395.844 37.403,402.078 	"/>
	<polygon style="fill:#80D7F0;" points="28.052,370.909 21.818,364.675 21.818,383.377 28.052,383.377 	"/>
	<polygon style="fill:#80D7F0;" points="31.169,383.377 37.403,383.377 37.403,380.26 31.169,374.026 	"/>
	<polygon style="fill:#80D7F0;" points="31.169,395.844 31.169,405.195 37.403,405.195 37.403,402.078 	"/>
	<polygon style="fill:#80D7F0;" points="28.052,392.727 21.818,386.494 21.818,405.195 28.052,405.195 	"/>
	<path style="fill:#FFFFFF;" d="M65.455,383.377v3.117v21.818h31.169v-21.818v-3.117v-21.818H65.455V383.377z M77.922,405.195
		v-9.351v-9.351h6.234v15.584v3.117H77.922z M93.506,405.195h-6.234v-18.701h6.234V405.195z M93.506,364.675v18.701h-6.234v-18.701
		H93.506z M84.156,364.675v15.584v3.117h-6.234v-9.351v-9.351H84.156z M68.571,364.675h6.234v6.234v12.468h-6.234V364.675z
		 M68.571,386.494h6.234v6.234v12.468h-6.234V386.494z"/>
	<polygon style="fill:#6EB1E2;" points="84.156,380.26 84.156,364.675 77.922,364.675 77.922,374.026 	"/>
	<polygon style="fill:#6EB1E2;" points="74.805,364.675 68.571,364.675 74.805,370.909 	"/>
	<rect x="87.273" y="364.675" style="fill:#6EB1E2;" width="6.234" height="18.701"/>
	<polygon style="fill:#6EB1E2;" points="84.156,386.494 77.922,386.494 77.922,395.844 84.156,402.078 	"/>
	<polygon style="fill:#6EB1E2;" points="74.805,386.494 68.571,386.494 74.805,392.727 	"/>
	<rect x="87.273" y="386.494" style="fill:#6EB1E2;" width="6.234" height="18.701"/>
	<polygon style="fill:#80D7F0;" points="77.922,383.377 84.156,383.377 84.156,380.26 77.922,374.026 	"/>
	<polygon style="fill:#80D7F0;" points="74.805,370.909 68.571,364.675 68.571,383.377 74.805,383.377 	"/>
	<polygon style="fill:#80D7F0;" points="74.805,392.727 68.571,386.494 68.571,405.195 74.805,405.195 	"/>
	<polygon style="fill:#80D7F0;" points="77.922,395.844 77.922,405.195 84.156,405.195 84.156,402.078 	"/>
	<path style="fill:#FFFFFF;" d="M130.909,321.039v3.117v21.818h0h31.169v-21.818v-3.117v-21.818h-18.701h-12.468h0V321.039z
		 M143.377,342.857v-9.351v-9.351h6.234v15.584v3.117H143.377z M158.961,342.857h-6.234v-18.701h6.234V342.857z M158.961,302.338
		v18.701h-6.234v-18.701H158.961z M149.61,302.338v15.584v3.117h-6.234v-9.351v-9.351H149.61z M134.026,302.338h6.234v6.234v12.468
		h-6.234V302.338z M134.026,324.156h6.234v6.234v12.468h-6.234V324.156z"/>
	<rect x="152.727" y="302.338" style="fill:#6EB1E2;" width="6.234" height="18.701"/>
	<polygon style="fill:#6EB1E2;" points="149.61,317.922 149.61,302.338 143.377,302.338 143.377,311.688 	"/>
	<polygon style="fill:#6EB1E2;" points="140.26,302.338 134.026,302.338 140.26,308.571 	"/>
	<polygon style="fill:#6EB1E2;" points="140.26,324.156 134.026,324.156 140.26,330.39 	"/>
	<polygon style="fill:#6EB1E2;" points="149.61,324.156 143.377,324.156 143.377,333.506 149.61,339.74 	"/>
	<rect x="152.727" y="324.156" style="fill:#6EB1E2;" width="6.234" height="18.701"/>
	<polygon style="fill:#80D7F0;" points="143.377,321.039 149.61,321.039 149.61,317.922 143.377,311.688 	"/>
	<polygon style="fill:#80D7F0;" points="140.26,308.571 134.026,302.338 134.026,321.039 140.26,321.039 	"/>
	<polygon style="fill:#80D7F0;" points="140.26,330.39 134.026,324.156 134.026,342.857 140.26,342.857 	"/>
	<polygon style="fill:#80D7F0;" points="143.377,333.506 143.377,342.857 149.61,342.857 149.61,339.74 	"/>
	<path style="fill:#FFFFFF;" d="M177.662,321.039v3.117v21.818h0h31.169v-21.818v-3.117v-21.818h-31.169h0V321.039z M190.13,342.857
		v-9.351v-9.351h6.234v15.584v3.117H190.13z M205.714,342.857h-6.234v-18.701h6.234V342.857z M205.714,302.338v18.701h-6.234
		v-18.701H205.714z M196.364,302.338v15.584v3.117h-6.234v-9.351v-9.351H196.364z M180.779,302.338h6.234v6.234v12.468h-6.234
		V302.338z M180.779,324.156h6.234v6.234v12.468h-6.234V324.156z"/>
	<rect x="199.48" y="302.338" style="fill:#6EB1E2;" width="6.234" height="18.701"/>
	<polygon style="fill:#6EB1E2;" points="187.013,302.338 180.779,302.338 187.013,308.571 	"/>
	<polygon style="fill:#6EB1E2;" points="196.364,317.922 196.364,302.338 190.13,302.338 190.13,311.688 	"/>
	<polygon style="fill:#6EB1E2;" points="196.364,324.156 190.13,324.156 190.13,333.506 196.364,339.74 	"/>
	<polygon style="fill:#6EB1E2;" points="187.013,324.156 180.779,324.156 187.013,330.39 	"/>
	<rect x="199.48" y="324.156" style="fill:#6EB1E2;" width="6.234" height="18.701"/>
	<polygon style="fill:#80D7F0;" points="190.13,321.039 196.364,321.039 196.364,317.922 190.13,311.688 	"/>
	<polygon style="fill:#80D7F0;" points="187.013,308.571 180.779,302.338 180.779,321.039 187.013,321.039 	"/>
	<polygon style="fill:#80D7F0;" points="187.013,330.39 180.779,324.156 180.779,342.857 187.013,342.857 	"/>
	<polygon style="fill:#80D7F0;" points="190.13,333.506 190.13,342.857 196.364,342.857 196.364,339.74 	"/>
	<path style="fill:#FFFFFF;" d="M255.584,324.156v-3.117v-21.818h-31.169h0v21.818v3.117v21.818h0h31.169V324.156z M243.117,302.338
		v15.584v3.117h-6.234v-9.351v-9.351H243.117z M227.532,302.338h6.234v6.234v12.468h-6.234V302.338z M227.532,342.857v-18.701h6.234
		v6.234v12.468H227.532z M236.883,342.857v-9.351v-9.351h6.234v15.584v3.117H236.883z M252.467,342.857h-6.234v-18.701h6.234
		V342.857z M252.467,321.039h-6.234v-18.701h6.234V321.039z"/>
	<polygon style="fill:#6EB1E2;" points="243.117,317.922 243.117,302.338 236.883,302.338 236.883,311.688 	"/>
	<polygon style="fill:#6EB1E2;" points="233.766,302.338 227.532,302.338 233.766,308.571 	"/>
	<rect x="246.234" y="302.338" style="fill:#6EB1E2;" width="6.234" height="18.701"/>
	<rect x="246.234" y="324.156" style="fill:#6EB1E2;" width="6.234" height="18.701"/>
	<polygon style="fill:#6EB1E2;" points="243.117,324.156 236.883,324.156 236.883,333.506 243.117,339.74 	"/>
	<polygon style="fill:#6EB1E2;" points="233.766,324.156 227.532,324.156 233.766,330.39 	"/>
	<polygon style="fill:#80D7F0;" points="233.766,308.571 227.532,302.338 227.532,321.039 233.766,321.039 	"/>
	<polygon style="fill:#80D7F0;" points="236.883,321.039 243.117,321.039 243.117,317.922 236.883,311.688 	"/>
	<polygon style="fill:#80D7F0;" points="236.883,333.506 236.883,342.857 243.117,342.857 243.117,339.74 	"/>
	<polygon style="fill:#80D7F0;" points="227.532,324.156 227.532,342.857 233.766,342.857 233.766,330.39 	"/>
	<path style="fill:#FFFFFF;" d="M271.169,321.039v3.117v21.818h0h31.169v-21.818v-3.117v-21.818h-31.169h0V321.039z
		 M283.636,342.857v-9.351v-9.351h6.234v15.584v3.117H283.636z M299.221,342.857h-6.234v-18.701h6.234V342.857z M299.221,302.338
		v18.701h-6.234v-18.701H299.221z M289.87,302.338v15.584v3.117h-6.234v-9.351v-9.351H289.87z M274.286,302.338h6.234v6.234v12.468
		h-6.234V302.338z M274.286,324.156h6.234v6.234v12.468h-6.234V324.156z"/>
	<polygon style="fill:#6EB1E2;" points="289.87,317.922 289.87,302.338 283.636,302.338 283.636,311.688 	"/>
	<polygon style="fill:#6EB1E2;" points="280.519,302.338 274.286,302.338 280.519,308.571 	"/>
	<rect x="292.987" y="302.338" style="fill:#6EB1E2;" width="6.234" height="18.701"/>
	<polygon style="fill:#6EB1E2;" points="289.87,324.156 283.636,324.156 283.636,333.506 289.87,339.74 	"/>
	<polygon style="fill:#6EB1E2;" points="280.519,324.156 274.286,324.156 280.519,330.39 	"/>
	<rect x="292.987" y="324.156" style="fill:#6EB1E2;" width="6.234" height="18.701"/>
	<polygon style="fill:#80D7F0;" points="283.636,321.039 289.87,321.039 289.87,317.922 283.636,311.688 	"/>
	<polygon style="fill:#80D7F0;" points="280.519,308.571 274.286,302.338 274.286,321.039 280.519,321.039 	"/>
	<polygon style="fill:#80D7F0;" points="283.636,333.506 283.636,342.857 289.87,342.857 289.87,339.74 	"/>
	<polygon style="fill:#80D7F0;" points="280.519,330.39 274.286,324.156 274.286,342.857 280.519,342.857 	"/>
	<path style="fill:#FFFFFF;" d="M317.922,321.039v3.117v21.818h0h31.169v-21.818v-3.117v-21.818h-12.467h-18.701h0V321.039z
		 M330.39,342.857v-9.351v-9.351h6.234v15.584v3.117H330.39z M345.974,342.857h-6.234v-18.701h6.234V342.857z M345.974,302.338
		v18.701h-6.234v-18.701H345.974z M336.623,302.338v15.584v3.117h-6.234v-9.351v-9.351H336.623z M321.039,302.338h6.234v6.234
		v12.468h-6.234V302.338z M321.039,324.156h6.234v6.234v12.468h-6.234V324.156z"/>
	<polygon style="fill:#6EB1E2;" points="336.623,317.922 336.623,302.338 330.39,302.338 330.39,311.688 	"/>
	<rect x="339.74" y="302.338" style="fill:#6EB1E2;" width="6.234" height="18.701"/>
	<polygon style="fill:#6EB1E2;" points="327.273,302.338 321.039,302.338 327.273,308.571 	"/>
	<polygon style="fill:#6EB1E2;" points="336.623,324.156 330.39,324.156 330.39,333.506 336.623,339.74 	"/>
	<rect x="339.74" y="324.156" style="fill:#6EB1E2;" width="6.234" height="18.701"/>
	<polygon style="fill:#6EB1E2;" points="327.273,324.156 321.039,324.156 327.273,330.39 	"/>
	<polygon style="fill:#80D7F0;" points="330.39,321.039 336.623,321.039 336.623,317.922 330.39,311.688 	"/>
	<polygon style="fill:#80D7F0;" points="327.273,308.571 321.039,302.338 321.039,321.039 327.273,321.039 	"/>
	<polygon style="fill:#80D7F0;" points="327.273,330.39 321.039,324.156 321.039,342.857 327.273,342.857 	"/>
	<polygon style="fill:#80D7F0;" points="330.39,333.506 330.39,342.857 336.623,342.857 336.623,339.74 	"/>
	<path style="fill:#FFFFFF;" d="M414.545,324.156v-3.117v-21.818h-31.169v21.818v3.117v21.818h31.169V324.156z M402.078,302.338
		v15.584v3.117h-6.234v-9.351v-9.351H402.078z M386.493,302.338h6.234v6.234v12.468h-6.234V302.338z M386.493,342.857v-18.701h6.234
		v6.234v12.468H386.493z M395.844,342.857v-9.351v-9.351h6.234v15.584v3.117H395.844z M411.428,342.857h-6.234v-18.701h6.234
		V342.857z M411.428,321.039h-6.234v-18.701h6.234V321.039z"/>
	<polygon style="fill:#6EB1E2;" points="402.078,317.922 402.078,302.338 395.844,302.338 395.844,311.688 	"/>
	<rect x="405.195" y="302.338" style="fill:#6EB1E2;" width="6.234" height="18.701"/>
	<polygon style="fill:#6EB1E2;" points="392.727,302.338 386.493,302.338 392.727,308.571 	"/>
	<rect x="405.195" y="324.156" style="fill:#6EB1E2;" width="6.234" height="18.701"/>
	<polygon style="fill:#6EB1E2;" points="402.078,324.156 395.844,324.156 395.844,333.506 402.078,339.74 	"/>
	<polygon style="fill:#6EB1E2;" points="392.727,324.156 386.493,324.156 392.727,330.39 	"/>
	<polygon style="fill:#80D7F0;" points="392.727,308.571 386.493,302.338 386.493,321.039 392.727,321.039 	"/>
	<polygon style="fill:#80D7F0;" points="395.844,321.039 402.078,321.039 402.078,317.922 395.844,311.688 	"/>
	<polygon style="fill:#80D7F0;" points="395.844,333.506 395.844,342.857 402.078,342.857 402.078,339.74 	"/>
	<polygon style="fill:#80D7F0;" points="386.493,324.156 386.493,342.857 392.727,342.857 392.727,330.39 	"/>
	<path style="fill:#FFFFFF;" d="M461.299,324.156v-3.117v-21.818H430.13v21.818v3.117v21.818h31.169V324.156z M448.831,302.338
		v15.584v3.117h-6.234v-9.351v-9.351H448.831z M433.247,302.338h6.234v6.234v12.468h-6.234V302.338z M433.247,342.857v-18.701h6.234
		v6.234v12.468H433.247z M442.597,342.857v-9.351v-9.351h6.234v15.584v3.117H442.597z M458.182,342.857h-6.234v-18.701h6.234
		V342.857z M458.182,321.039h-6.234v-18.701h6.234V321.039z"/>
	<polygon style="fill:#6EB1E2;" points="448.831,317.922 448.831,302.338 442.597,302.338 442.597,311.688 	"/>
	<rect x="451.948" y="302.338" style="fill:#6EB1E2;" width="6.234" height="18.701"/>
	<polygon style="fill:#6EB1E2;" points="439.48,302.338 433.247,302.338 439.48,308.571 	"/>
	<polygon style="fill:#6EB1E2;" points="448.831,324.156 442.597,324.156 442.597,333.506 448.831,339.74 	"/>
	<rect x="451.948" y="324.156" style="fill:#6EB1E2;" width="6.234" height="18.701"/>
	<polygon style="fill:#6EB1E2;" points="439.48,324.156 433.247,324.156 439.48,330.39 	"/>
	<polygon style="fill:#80D7F0;" points="439.48,308.571 433.247,302.338 433.247,321.039 439.48,321.039 	"/>
	<polygon style="fill:#80D7F0;" points="442.597,321.039 448.831,321.039 448.831,317.922 442.597,311.688 	"/>
	<polygon style="fill:#80D7F0;" points="433.247,324.156 433.247,342.857 439.48,342.857 439.48,330.39 	"/>
	<polygon style="fill:#80D7F0;" points="442.597,333.506 442.597,342.857 448.831,342.857 448.831,339.74 	"/>
	<path style="fill:#FFFFFF;" d="M414.545,386.494v-3.117v-21.818h-31.169v21.818v3.117v21.818h31.169V386.494z M402.078,364.675
		v15.584v3.117h-6.234v-9.351v-9.351H402.078z M386.493,364.675h6.234v6.234v12.468h-6.234V364.675z M386.493,405.195v-18.701h6.234
		v6.234v12.468H386.493z M395.844,405.195v-9.351v-9.351h6.234v15.584v3.117H395.844z M411.428,405.195h-6.234v-18.701h6.234
		V405.195z M411.428,383.377h-6.234v-18.701h6.234V383.377z"/>
	<polygon style="fill:#6EB1E2;" points="392.727,364.675 386.493,364.675 392.727,370.909 	"/>
	<polygon style="fill:#6EB1E2;" points="402.078,380.26 402.078,364.675 395.844,364.675 395.844,374.026 	"/>
	<rect x="405.195" y="364.675" style="fill:#6EB1E2;" width="6.234" height="18.701"/>
	<polygon style="fill:#6EB1E2;" points="402.078,386.494 395.844,386.494 395.844,395.844 402.078,402.078 	"/>
	<polygon style="fill:#6EB1E2;" points="392.727,386.494 386.493,386.494 392.727,392.727 	"/>
	<rect x="405.195" y="386.494" style="fill:#6EB1E2;" width="6.234" height="18.701"/>
	<polygon style="fill:#80D7F0;" points="395.844,383.377 402.078,383.377 402.078,380.26 395.844,374.026 	"/>
	<polygon style="fill:#80D7F0;" points="392.727,370.909 386.493,364.675 386.493,383.377 392.727,383.377 	"/>
	<polygon style="fill:#80D7F0;" points="395.844,395.844 395.844,405.195 402.078,405.195 402.078,402.078 	"/>
	<polygon style="fill:#80D7F0;" points="386.493,386.494 386.493,405.195 392.727,405.195 392.727,392.727 	"/>
	<path style="fill:#FFFFFF;" d="M461.299,386.494v-3.117v-21.818H430.13v21.818v3.117v21.818h31.169V386.494z M448.831,364.675
		v15.584v3.117h-6.234v-9.351v-9.351H448.831z M433.247,364.675h6.234v6.234v12.468h-6.234V364.675z M433.247,405.195v-18.701h6.234
		v6.234v12.468H433.247z M442.597,405.195v-9.351v-9.351h6.234v15.584v3.117H442.597z M458.182,405.195h-6.234v-18.701h6.234
		V405.195z M458.182,383.377h-6.234v-18.701h6.234V383.377z"/>
	<polygon style="fill:#6EB1E2;" points="439.48,364.675 433.247,364.675 439.48,370.909 	"/>
	<polygon style="fill:#6EB1E2;" points="448.831,380.26 448.831,364.675 442.597,364.675 442.597,374.026 	"/>
	<rect x="451.948" y="364.675" style="fill:#6EB1E2;" width="6.234" height="18.701"/>
	<polygon style="fill:#6EB1E2;" points="448.831,386.494 442.597,386.494 442.597,395.844 448.831,402.078 	"/>
	<polygon style="fill:#6EB1E2;" points="439.48,386.494 433.247,386.494 439.48,392.727 	"/>
	<rect x="451.948" y="386.494" style="fill:#6EB1E2;" width="6.234" height="18.701"/>
	<polygon style="fill:#80D7F0;" points="442.597,383.377 448.831,383.377 448.831,380.26 442.597,374.026 	"/>
	<polygon style="fill:#80D7F0;" points="439.48,370.909 433.247,364.675 433.247,383.377 439.48,383.377 	"/>
	<polygon style="fill:#80D7F0;" points="442.597,395.844 442.597,405.195 448.831,405.195 448.831,402.078 	"/>
	<polygon style="fill:#80D7F0;" points="433.247,386.494 433.247,405.195 439.48,405.195 439.48,392.727 	"/>
	<path style="fill:#FFFFFF;" d="M302.338,162.078v-3.117v-21.818h-31.169v21.818v3.117v21.818h31.169V162.078z M289.87,140.26
		v15.584v3.117h-6.234v-9.351v-9.351H289.87z M274.286,140.26h6.234v6.234v12.468h-6.234V140.26z M274.286,180.779v-18.701h6.234
		v6.234v12.468H274.286z M283.636,180.779v-9.351v-9.351h6.234v15.584v3.117H283.636z M299.221,180.779h-6.234v-18.701h6.234
		V180.779z M299.221,158.961h-6.234V140.26h6.234V158.961z"/>
	<polygon style="fill:#6EB1E2;" points="289.87,155.844 289.87,140.26 283.636,140.26 283.636,149.61 	"/>
	<rect x="292.987" y="140.26" style="fill:#6EB1E2;" width="6.234" height="18.701"/>
	<polygon style="fill:#6EB1E2;" points="280.519,140.26 274.286,140.26 280.519,146.494 	"/>
	<polygon style="fill:#6EB1E2;" points="280.519,162.078 274.286,162.078 280.519,168.312 	"/>
	<polygon style="fill:#6EB1E2;" points="289.87,162.078 283.636,162.078 283.636,171.429 289.87,177.662 	"/>
	<rect x="292.987" y="162.078" style="fill:#6EB1E2;" width="6.234" height="18.701"/>
	<polygon style="fill:#80D7F0;" points="280.519,146.494 274.286,140.26 274.286,158.961 280.519,158.961 	"/>
	<polygon style="fill:#80D7F0;" points="283.636,158.961 289.87,158.961 289.87,155.844 283.636,149.61 	"/>
	<polygon style="fill:#80D7F0;" points="274.286,162.078 274.286,180.779 280.519,180.779 280.519,168.312 	"/>
	<polygon style="fill:#80D7F0;" points="283.636,171.429 283.636,180.779 289.87,180.779 289.87,177.662 	"/>
	<path style="fill:#FFFFFF;" d="M208.831,162.078v-3.117v-21.818h-31.169v21.818v3.117v21.818h31.169V162.078z M196.364,140.26
		v15.584v3.117h-6.234v-9.351v-9.351H196.364z M180.779,140.26h6.234v6.234v12.468h-6.234V140.26z M180.779,180.779v-18.701h6.234
		v6.234v12.468H180.779z M190.13,180.779v-9.351v-9.351h6.234v15.584v3.117H190.13z M205.714,180.779h-6.234v-18.701h6.234V180.779z
		 M205.714,158.961h-6.234V140.26h6.234V158.961z"/>
	<rect x="199.48" y="140.26" style="fill:#6EB1E2;" width="6.234" height="18.701"/>
	<polygon style="fill:#6EB1E2;" points="196.364,155.844 196.364,140.26 190.13,140.26 190.13,149.61 	"/>
	<polygon style="fill:#6EB1E2;" points="187.013,140.26 180.779,140.26 187.013,146.494 	"/>
	<polygon style="fill:#6EB1E2;" points="187.013,162.078 180.779,162.078 187.013,168.312 	"/>
	<polygon style="fill:#6EB1E2;" points="196.364,162.078 190.13,162.078 190.13,171.429 196.364,177.662 	"/>
	<rect x="199.48" y="162.078" style="fill:#6EB1E2;" width="6.234" height="18.701"/>
	<polygon style="fill:#80D7F0;" points="187.013,146.494 180.779,140.26 180.779,158.961 187.013,158.961 	"/>
	<polygon style="fill:#80D7F0;" points="190.13,158.961 196.364,158.961 196.364,155.844 190.13,149.61 	"/>
	<polygon style="fill:#80D7F0;" points="180.779,162.078 180.779,180.779 187.013,180.779 187.013,168.312 	"/>
	<polygon style="fill:#80D7F0;" points="190.13,171.429 190.13,180.779 196.364,180.779 196.364,177.662 	"/>
	<path style="fill:#FFFFFF;" d="M255.584,162.078v-3.117v-21.818h-31.169v21.818v3.117v21.818h31.169V162.078z M243.117,140.26
		v15.584v3.117h-6.234v-9.351v-9.351H243.117z M227.532,140.26h6.234v6.234v12.468h-6.234V140.26z M227.532,180.779v-18.701h6.234
		v6.234v12.468H227.532z M236.883,180.779v-9.351v-9.351h6.234v15.584v3.117H236.883z M252.467,180.779h-6.234v-18.701h6.234
		V180.779z M252.467,158.961h-6.234V140.26h6.234V158.961z"/>
	<polygon style="fill:#6EB1E2;" points="233.766,140.26 227.532,140.26 233.766,146.494 	"/>
	<rect x="246.234" y="140.26" style="fill:#6EB1E2;" width="6.234" height="18.701"/>
	<polygon style="fill:#6EB1E2;" points="243.117,155.844 243.117,140.26 236.883,140.26 236.883,149.61 	"/>
	<polygon style="fill:#6EB1E2;" points="243.117,162.078 236.883,162.078 236.883,171.429 243.117,177.662 	"/>
	<rect x="246.234" y="162.078" style="fill:#6EB1E2;" width="6.234" height="18.701"/>
	<polygon style="fill:#6EB1E2;" points="233.766,162.078 227.532,162.078 233.766,168.312 	"/>
	<polygon style="fill:#80D7F0;" points="233.766,146.494 227.532,140.26 227.532,158.961 233.766,158.961 	"/>
	<polygon style="fill:#80D7F0;" points="236.883,158.961 243.117,158.961 243.117,155.844 236.883,149.61 	"/>
	<polygon style="fill:#80D7F0;" points="236.883,171.429 236.883,180.779 243.117,180.779 243.117,177.662 	"/>
	<polygon style="fill:#80D7F0;" points="227.532,162.078 227.532,180.779 233.766,180.779 233.766,168.312 	"/>
</g>
<g>
</g>
<g>
</g>
<g>
</g>
<g>
</g>
<g>
</g>
<g>
</g>
<g>
</g>
<g>
</g>
<g>
</g>
<g>
</g>
<g>
</g>
<g>
</g>
<g>
</g>
<g>
</g>
<g>
</g>
</svg>
