<svg viewBox="0 -16 512 512" xmlns="http://www.w3.org/2000/svg"><path d="m91 15.902344h330v74.097656h-330zm0 0" fill="#ff9f00"/><path d="m512 270v210h-421l-22.5-128.402344-68.5-21.597656v-60l44.199219-30h423.300781zm0 0" fill="#d3d3d8"/><path d="m256 15.902344h165v74.097656h-165zm0 0" fill="#ff7816"/><path d="m512 270v210h-256v-240h211.5zm0 0" fill="#babac0"/><path d="m512 60v210h-421l-26.398438-128.402344-64.601562-21.597656v-60zm0 0" fill="#e2e2e7"/><path d="m256 60h256v210h-256zm0 0" fill="#d3d3d8"/><path d="m61 0h390v30h-390zm0 0" fill="#e2e2e7"/><path d="m256 0h195v30h-195zm0 0" fill="#d3d3d8"/><path d="m91 480h-91v-150h91zm0 0" fill="#5a5a5a"/><path d="m91 270h-91v-150h91zm0 0" fill="#5a5a5a"/><path d="m211 420h-90v-90h90zm0 0" fill="#9ed0ff"/><path d="m451 420h-90v-90h90zm0 0" fill="#73bcff"/><path d="m241 330v150h90v-150zm0 0" fill="#5a5a5a"/><path d="m211 210h-90v-90h90zm0 0" fill="#9ed0ff"/><path d="m451 210h-90v-90h90zm0 0" fill="#73bcff"/><path d="m241 120v150h90v-150zm0 0" fill="#5a5a5a"/><g fill="#444"><path d="m256 120h75v150h-75zm0 0"/><path d="m256 330h75v150h-75zm0 0"/></g></svg>