<svg viewBox="0 0 512 512" xmlns="http://www.w3.org/2000/svg"><path d="m361 136h90v180h-90zm0 0" fill="#d03b00"/><path d="m451 301v211h-180l-30-121h-90l-30 121h-60v-211l195-195zm0 0" fill="#ececf1"/><path d="m451 301v211h-180l-15-61v-345zm0 0" fill="#e2e2e7"/><path d="m121 331h150v181h-150zm0 0" fill="#6e6e6e"/><path d="m512 335.5-21.300781 21-234.699219-229.199219-234.699219 229.199219-21.300781-21 256-250.800781zm0 0" fill="#ff7816"/><path d="m211 391h45v30h-45zm0 0"/><path d="m391 421h-90v-90h90zm0 0" fill="#78b9eb"/><path d="m211 211v90h90v-90zm0 0" fill="#96c8ef"/><path d="m331 121h150v30h-150zm0 0" fill="#5a5a5a"/><path d="m361 0h30v91h-30zm0 0" fill="#babac0"/><path d="m421 0h30v91h-30zm0 0" fill="#babac0"/><path d="m512 335.5-21.300781 21-234.699219-229.199219v-42.601562zm0 0" fill="#ff4b00"/><path d="m256 211h45v90h-45zm0 0" fill="#78b9eb"/><path d="m196 331h75v181h-75zm0 0" fill="#5a5a5a"/></svg>